<?xml version="1.0" encoding="UTF-8"?>
<svg id="Scouts_AUS_Master_Vert_1Col_CMYK" xmlns="http://www.w3.org/2000/svg" viewBox="0 0 657.88 231.87">
  <defs>
    <style>
      .cls-1 {
        fill: #c1272a;
      }

      .cls-2 {
        fill: #7fbc42;
      }

      .cls-3 {
        fill: #bb6228;
      }

      .cls-4 {
        fill: #262661;
      }

      .cls-5 {
        fill: #9f4040;
      }

      .cls-6 {
        fill: #2f9e49;
      }

      .cls-7 {
        fill: #fbaa19;
      }

      .cls-8 {
        fill: #ed1c24;
      }

      .cls-9 {
        fill: #803039;
      }

      .cls-10 {
        fill: #ffc62f;
      }

      .cls-11 {
        fill: #d9292c;
      }

      .cls-12 {
        fill: #79242f;
      }

      .cls-13 {
        fill: #fff;
      }

      .cls-14 {
        fill: #4f5b3b;
      }

      .cls-15 {
        fill: #de8d28;
      }

      .cls-16 {
        fill: #ea6952;
      }

      .cls-17 {
        fill: #008d51;
      }

      .cls-18 {
        fill: #eb8350;
      }

      .cls-19 {
        fill: #923938;
      }

      .cls-20 {
        fill: #de6940;
      }

      .cls-21 {
        fill: #9fc13f;
      }

      .cls-22 {
        fill: #a42036;
      }

      .cls-23 {
        fill: #ad9d42;
      }
    </style>
  </defs>
  <rect class="cls-4" y="0" width="657.88" height="231.87"/>
  <g id="Logotype">
    <path id="Logo" class="cls-4" d="M108.73,85.5c-.22-3.07.25-5.71,1.67-7.45,1.58-1.93,4.3-2.28,7.32-2.28,1.76,0,3.62.12,5.42.12,2.33,0,4.55-.2,6.29-1.13,3.92-2.08,6.46-6.68,10.84-17.37,4.3-10.48,7.85-18.98,15-19.04.02,0,.04,0,.06,0,6.54,0,10.04,9.42,12.64,19.07.86,3.19,2.24,8.59,3.1,14.76-1,.28-2.03.77-3.05,1.47-1.57,1.08-7.17,5.13-13.12,12.16-.92,1.09-1.87,2.29-2.8,3.56,0,0,0,0,0,0-1.13-1.43-2.49-2.78-4.12-4-.73-.55-4.36-3.26-6.5-5.58-2.15,2.32-5.77,5.03-6.5,5.58-2.89,2.17-4.98,4.76-6.31,7.45,0,0,0,0,0,0-5.23-3.37-11.9-5.83-19.93-7.32ZM191.57,150.75c0,.83-1.19,1.45-2.19,1.88-2.88,1.23-11.7,4.68-22.74,4.68-2.42,0-4.94-.17-7.54-.56-3.9-.59-7.21-2.09-9.92-4.15,0,0,0,0,0,0,1.16-1.4,2.12-2.86,2.79-4.32-2.73-3.77-4.1-8.45-4.49-12.27h-12.02c-.39,3.82-1.76,8.5-4.49,12.27,1.88,4.11,6.02,8.23,10.5,10.82,2.43-1.4,4.76-3.26,6.68-5.32,0,0,0,0,0,0,3.1,2.38,6.74,3.92,10.72,4.52,1.78.27,3.6.44,5.45.52.01.23.02.46.03.68.31,9.16-1.72,18.01-5.4,25.53-2.38,4.86-6.08,7.86-10.44,7.86-1.89,0-3.9-.56-5.98-1.78-6.97-4.07-10.71-12.11-22.66-18.01-7.2-3.56-13.6-3.7-17.77-3.7-.37,0-.72,0-1.06,0-2.42,0-3.86-.06-3.93-1.05-.1-1.41,2.5-2.51,5.32-4.49,3.92-2.75,9.94-8.54,14.39-14,1.65-.7,3.54-1.58,5.55-2.67,0,0,0,0,0,0,.95.56,2.04.9,3.22.9,5.01,0,8.1-8.05,8.28-12.08h-5.51c0,.05,0,.1-.01.13-.61,5.18-5.1,6.22-9.59,5.21.15,1.81.98,3.54,2.26,4.79,0,0,0,0,0,0-4.58,2.42-8.52,3.73-9.87,4.19-4.51,1.56-8.05,2.32-10.79,2.32-2.39,0-4.17-.58-5.45-1.69-2.66-2.32-1.44-6.03-.56-10.66.87-4.54.66-8.56-1.12-12.29-4.59-9.63-18.27-11.93-28.03-19.11-4.76-3.5-7.25-7.35-6.59-11.74.49-3.25,3.16-6.84,8.71-8.87,5.35-1.95,12.35-3,20.92-3,3.25,0,6.72.15,10.42.46,12.75,1.06,22.46,4.01,29.34,8.51-.77,1.97-1.16,3.95-1.16,5.83,0,10.25,8.62,15.57,8.62,30.87h-1.58c0-11.17-6.86-26.6-18.79-26.62-8.49-.01-14.35,8.09-12.6,16.13,1.17,5.38,6.08,10.1,11.91,9.29-.99-3.73.73-7.92,4.82-8.52,4.73-.68,7.6,4.16,8.48,9.71h-.08c-.96,0-1.74.78-1.74,1.74s.78,1.74,1.74,1.74h27.67c.96,0,1.74-.78,1.74-1.74s-.78-1.74-1.74-1.74h-.08c.88-5.55,3.76-10.4,8.48-9.71,4.09.59,5.81,4.79,4.82,8.52,1.39.19,2.73.07,3.98-.3,0,0,0,0,0,0,.41.89.8,1.77,1.2,2.62,4.49,9.62,9.24,12.78,15.49,16.5,1.54.92,2.37,1.52,2.37,2.17ZM164.18,141.34c-4.48,1.01-8.98-.03-9.59-5.21,0-.03,0-.08-.01-.13h-5.51c.18,4.03,3.27,12.08,8.28,12.08,3.68,0,6.53-3.22,6.83-6.74ZM213.71,101.94c-14.07-7.41-37.27-7.48-37.05-23.25.05-3.45-1.53-5.21-3.79-5.21-1.18,0-2.56.48-3.98,1.46-3.27,2.24-8.2,6.43-12.81,11.88-.98,1.16-2,2.46-3.03,3.87,2.04,3.06,3.04,6.37,3.04,9.4,0,10.25-8.62,15.57-8.62,30.87h1.58c0-11.17,6.86-26.6,18.79-26.62,8.49-.01,14.35,8.09,12.6,16.13-.78,3.58-3.22,6.87-6.48,8.43h0c.11.24.22.48.33.72.28.61.55,1.21.83,1.8,2.05,4.38,4.1,7.33,6.41,9.66,9.32-6.2,7.53-17.3,19.2-25.41,5.48-3.81,9.86-5.58,13.52-6.73,4.05-1.28,4.03-4.59-.55-7Z"/>
  </g>
  <g>
    <path class="cls-13" d="M251.93,114.05v-8.06h10.02v-28.42h4.63l-12.31,7.23-3.68-7.17,14.21-8.31h6.98v36.67h9.39v8.06h-29.24Z"/>
    <path class="cls-13" d="M298.37,114.68c-1.82,0-3.57-.14-5.26-.41-1.69-.27-3.24-.67-4.63-1.17-1.4-.51-2.62-1.16-3.68-1.97l2.28-6.15c1.06.59,2.21,1.14,3.46,1.65,1.25.51,2.55.89,3.9,1.14,1.35.25,2.68.38,4,.38,1.78,0,3.09-.29,3.93-.89.85-.59,1.27-1.35,1.27-2.28,0-.8-.28-1.41-.83-1.81-.55-.4-1.35-.71-2.41-.92l-6.72-1.21c-2.58-.51-4.58-1.48-5.99-2.92-1.42-1.44-2.12-3.3-2.12-5.58,0-2.16.59-4,1.78-5.52,1.18-1.52,2.82-2.7,4.92-3.52,2.09-.82,4.47-1.24,7.14-1.24,1.52,0,3,.13,4.44.38s2.8.63,4.09,1.14c1.29.51,2.46,1.16,3.52,1.97l-2.47,6.15c-.8-.59-1.76-1.12-2.85-1.59-1.1-.46-2.22-.82-3.36-1.08s-2.2-.38-3.17-.38c-1.95,0-3.35.3-4.22.89-.87.59-1.3,1.35-1.3,2.28,0,.72.25,1.32.76,1.81.51.49,1.27.82,2.28.98l6.72,1.14c2.71.51,4.78,1.45,6.22,2.82,1.44,1.38,2.16,3.23,2.16,5.55,0,2.2-.57,4.07-1.71,5.61-1.14,1.54-2.75,2.72-4.82,3.52-2.07.8-4.5,1.21-7.29,1.21Z"/>
    <path class="cls-13" d="M332.05,114.68c-4.44,0-7.73-1.07-9.86-3.2-2.14-2.13-3.2-5.3-3.2-9.48v-11.99h-5.9v-7.04h5.9v-9.2h9.58v9.2h9.13v7.04h-9.13v11.61c0,1.78.4,3.1,1.21,3.96.8.87,2.11,1.3,3.93,1.3.51,0,1.08-.05,1.71-.16.63-.1,1.33-.26,2.09-.48l1.33,6.98c-.85.47-1.89.82-3.14,1.08-1.25.25-2.46.38-3.65.38Z"/>
    <path class="cls-13" d="M359.07,114.05v-44.72h20.49c4.78,0,8.47,1.04,11.07,3.11,2.6,2.07,3.9,4.91,3.9,8.5,0,2.67-.76,4.93-2.28,6.79-1.52,1.86-3.59,3.11-6.22,3.74v-.95c2.03.3,3.76.93,5.2,1.9,1.44.97,2.54,2.22,3.3,3.74.76,1.52,1.14,3.3,1.14,5.33,0,2.58-.61,4.82-1.84,6.72s-3,3.35-5.33,4.35c-2.33.99-5.08,1.49-8.25,1.49h-21.19ZM368.52,87.66h9.33c2.45,0,4.27-.45,5.46-1.36,1.18-.91,1.78-2.27,1.78-4.09s-.59-3.25-1.78-4.16c-1.18-.91-3-1.36-5.46-1.36h-9.33v10.97ZM368.52,106.69h10.47c1.01,0,1.91-.07,2.7-.22.78-.15,1.46-.37,2.03-.67.57-.3,1.05-.69,1.43-1.17.38-.49.67-1.04.86-1.65.19-.61.29-1.3.29-2.06,0-.8-.09-1.53-.29-2.19-.19-.66-.48-1.21-.86-1.65s-.86-.82-1.43-1.14c-.57-.32-1.25-.55-2.03-.7-.78-.15-1.68-.22-2.7-.22h-10.47v11.67Z"/>
    <path class="cls-13" d="M412.04,114.68c-2.37,0-4.44-.43-6.22-1.3s-3.17-2.05-4.19-3.55c-1.02-1.5-1.52-3.22-1.52-5.17,0-2.28.59-4.08,1.78-5.39,1.18-1.31,3.1-2.26,5.74-2.85,2.64-.59,6.16-.89,10.56-.89h3.36v4.95h-3.3c-1.61,0-2.98.06-4.12.19s-2.07.35-2.79.67c-.72.32-1.24.72-1.55,1.21-.32.49-.48,1.07-.48,1.75,0,1.14.41,2.09,1.24,2.85.83.76,2,1.14,3.52,1.14,1.23,0,2.33-.27,3.3-.83.97-.55,1.73-1.31,2.28-2.28.55-.97.83-2.13.83-3.49v-7.23c0-1.86-.42-3.18-1.27-3.96-.85-.78-2.31-1.17-4.38-1.17-1.65,0-3.42.25-5.3.76-1.88.51-3.73,1.31-5.55,2.41l-2.6-6.34c1.1-.76,2.42-1.44,3.96-2.03,1.54-.59,3.19-1.05,4.95-1.36s3.39-.48,4.92-.48c3.26,0,5.95.48,8.09,1.43s3.72,2.42,4.76,4.41c1.04,1.99,1.55,4.5,1.55,7.55v18.4h-8.94v-6.22h.44c-.25,1.4-.79,2.6-1.62,3.62-.82,1.01-1.86,1.81-3.11,2.38-1.25.57-2.7.86-4.34.86Z"/>
    <path class="cls-13" d="M447.44,114.68c-3.97,0-6.89-1.04-8.75-3.11s-2.79-5.18-2.79-9.33v-32.92h9.58v32.54c0,1.1.17,2.03.51,2.79.34.76.83,1.32,1.49,1.68s1.49.54,2.51.54c.46,0,.92,0,1.37-.03.44-.02.86-.09,1.24-.22l-.06,7.42c-.85.21-1.67.37-2.47.48-.8.11-1.67.16-2.6.16Z"/>
    <path class="cls-13" d="M456.25,114.05v-31.08h9.39v5.84h-.7c.59-1.35,1.36-2.52,2.31-3.49.95-.97,2.1-1.72,3.46-2.25,1.35-.53,2.83-.79,4.44-.79,2.41,0,4.42.57,6.03,1.71,1.61,1.14,2.75,2.88,3.43,5.2h-.89c.93-2.11,2.37-3.79,4.31-5.04,1.94-1.25,4.14-1.87,6.6-1.87s4.33.47,5.9,1.4c1.56.93,2.73,2.38,3.49,4.34.76,1.97,1.14,4.43,1.14,7.39v18.65h-9.58v-18.33c0-2.11-.32-3.65-.95-4.6-.63-.95-1.78-1.43-3.42-1.43-1.14,0-2.15.28-3.01.82-.87.55-1.53,1.38-2,2.47-.47,1.1-.7,2.43-.7,4v17.06h-9.58v-18.33c0-2.11-.34-3.65-1.01-4.6-.68-.95-1.78-1.43-3.3-1.43-1.18,0-2.21.28-3.08.82-.87.55-1.53,1.38-2,2.47-.47,1.1-.7,2.43-.7,4v17.06h-9.58Z"/>
    <path class="cls-13" d="M522.22,114.68c-2.37,0-4.44-.43-6.22-1.3-1.78-.87-3.17-2.05-4.19-3.55-1.01-1.5-1.52-3.22-1.52-5.17,0-2.28.59-4.08,1.78-5.39,1.18-1.31,3.1-2.26,5.74-2.85,2.64-.59,6.16-.89,10.56-.89h3.36v4.95h-3.3c-1.61,0-2.98.06-4.12.19s-2.07.35-2.79.67c-.72.32-1.24.72-1.55,1.21-.32.49-.48,1.07-.48,1.75,0,1.14.41,2.09,1.24,2.85.82.76,2,1.14,3.52,1.14,1.23,0,2.33-.27,3.3-.83.97-.55,1.73-1.31,2.28-2.28.55-.97.83-2.13.83-3.49v-7.23c0-1.86-.42-3.18-1.27-3.96-.85-.78-2.3-1.17-4.38-1.17-1.65,0-3.42.25-5.3.76-1.88.51-3.73,1.31-5.55,2.41l-2.6-6.34c1.1-.76,2.42-1.44,3.96-2.03,1.54-.59,3.19-1.05,4.95-1.36,1.75-.32,3.39-.48,4.92-.48,3.26,0,5.95.48,8.09,1.43,2.13.95,3.72,2.42,4.76,4.41,1.04,1.99,1.55,4.5,1.55,7.55v18.4h-8.94v-6.22h.44c-.25,1.4-.79,2.6-1.62,3.62-.83,1.01-1.86,1.81-3.11,2.38-1.25.57-2.7.86-4.35.86Z"/>
    <path class="cls-13" d="M545.7,76.87v-8.88h10.4v8.88h-10.4ZM546.08,114.05v-31.08h9.58v31.08h-9.58Z"/>
    <path class="cls-13" d="M562.19,114.05v-31.08h9.39v5.84h-.7c.93-2.11,2.37-3.73,4.31-4.85,1.94-1.12,4.12-1.68,6.53-1.68,2.54,0,4.6.48,6.19,1.43,1.58.95,2.78,2.4,3.58,4.35.8,1.95,1.21,4.4,1.21,7.36v18.65h-9.58v-18.27c0-1.44-.17-2.6-.51-3.49-.34-.89-.86-1.54-1.55-1.97-.7-.42-1.58-.63-2.63-.63-1.35,0-2.53.29-3.52.86-.99.57-1.77,1.38-2.32,2.41s-.82,2.27-.82,3.71v17.38h-9.58Z"/>
  </g>
  <g>
    <path class="cls-13" d="M259.12,165.34c-1.58,0-3.06-.14-4.45-.43s-2.66-.69-3.82-1.22c-1.16-.53-2.21-1.18-3.16-1.95l1.25-2.83c.97.72,1.97,1.32,2.99,1.83,1.02.5,2.12.87,3.31,1.12,1.19.24,2.48.37,3.89.37,2.58,0,4.49-.48,5.73-1.44,1.25-.96,1.87-2.23,1.87-3.8,0-.83-.19-1.55-.58-2.15s-1.02-1.12-1.89-1.55c-.87-.43-2.01-.79-3.42-1.07l-4.47-.9c-2.69-.57-4.7-1.51-6.04-2.81-1.33-1.3-2-3.04-2-5.22,0-1.8.47-3.38,1.4-4.72.93-1.35,2.23-2.39,3.91-3.14,1.67-.74,3.59-1.12,5.73-1.12,1.38,0,2.68.14,3.91.43,1.23.29,2.37.71,3.42,1.27,1.04.56,1.97,1.24,2.77,2.04l-1.25,2.75c-1.29-1.17-2.65-2.03-4.08-2.56-1.43-.53-3.04-.79-4.81-.79-1.52,0-2.83.23-3.93.69-1.1.46-1.96,1.12-2.58,2-.62.87-.92,1.88-.92,3.03,0,1.38.42,2.46,1.27,3.26s2.23,1.39,4.14,1.76l4.47.95c2.89.6,5.03,1.51,6.42,2.73,1.39,1.22,2.08,2.87,2.08,4.96,0,1.66-.45,3.14-1.35,4.45-.9,1.3-2.19,2.31-3.87,3.03-1.67.72-3.66,1.07-5.95,1.07Z"/>
    <path class="cls-13" d="M283.13,165.34c-2.09,0-3.89-.46-5.41-1.38-1.52-.92-2.68-2.2-3.5-3.84-.82-1.65-1.22-3.56-1.22-5.73s.41-4.11,1.22-5.71c.82-1.6,1.98-2.83,3.5-3.69,1.52-.86,3.32-1.29,5.41-1.29,1.29,0,2.56.23,3.82.69,1.26.46,2.3,1.1,3.13,1.93l-1.2,2.53c-.83-.8-1.74-1.39-2.73-1.76s-1.93-.56-2.81-.56c-2.18,0-3.85.68-5.02,2.04-1.17,1.36-1.76,3.31-1.76,5.86s.59,4.46,1.76,5.91c1.17,1.45,2.85,2.17,5.02,2.17.89,0,1.83-.19,2.81-.56.99-.37,1.9-.97,2.73-1.8l1.2,2.53c-.83.83-1.88,1.48-3.16,1.95-1.27.47-2.54.71-3.8.71Z"/>
    <path class="cls-13" d="M301.85,165.34c-2.03,0-3.79-.44-5.28-1.33-1.49-.89-2.64-2.14-3.46-3.76-.82-1.62-1.22-3.53-1.22-5.73s.41-4.12,1.22-5.73c.82-1.62,1.97-2.87,3.46-3.76,1.49-.89,3.25-1.33,5.28-1.33s3.79.44,5.28,1.33c1.49.89,2.64,2.14,3.46,3.76.82,1.62,1.22,3.53,1.22,5.73s-.41,4.12-1.22,5.73c-.82,1.62-1.97,2.87-3.46,3.76-1.49.89-3.25,1.33-5.28,1.33ZM301.85,162.55c1.98,0,3.54-.69,4.7-2.08,1.16-1.39,1.74-3.37,1.74-5.95s-.58-4.6-1.74-5.97c-1.16-1.38-2.73-2.06-4.7-2.06s-3.51.69-4.68,2.06c-1.17,1.37-1.76,3.36-1.76,5.97s.59,4.56,1.76,5.95c1.17,1.39,2.73,2.08,4.68,2.08Z"/>
    <path class="cls-13" d="M323.46,165.34c-1.69,0-3.08-.31-4.19-.92s-1.93-1.54-2.49-2.77c-.56-1.23-.84-2.76-.84-4.6v-12.97h3.48v12.93c0,1.23.16,2.25.49,3.07.33.82.85,1.42,1.57,1.8.72.39,1.6.58,2.66.58,1.2,0,2.25-.27,3.13-.82s1.59-1.3,2.1-2.28c.52-.97.77-2.12.77-3.44v-11.85h3.48v20.87h-3.39v-4.81h.56c-.57,1.69-1.51,2.98-2.81,3.87-1.3.89-2.81,1.33-4.53,1.33Z"/>
    <path class="cls-13" d="M347.55,165.34c-2.46,0-4.31-.66-5.54-1.98-1.23-1.32-1.85-3.19-1.85-5.63v-10.95h-4.08v-2.71h4.08v-6.4h3.48v6.4h6.61v2.71h-6.61v10.61c0,1.63.34,2.87,1.03,3.71.69.84,1.8,1.27,3.35,1.27.46,0,.92-.06,1.37-.17.46-.11.87-.23,1.25-.34l.6,2.66c-.37.2-.92.39-1.63.56s-1.4.26-2.06.26Z"/>
    <path class="cls-13" d="M377.57,165.34c-3.24,0-5.96-.62-8.18-1.85-2.22-1.23-3.9-3.01-5.05-5.33s-1.72-5.1-1.72-8.33.57-5.97,1.72-8.29,2.79-4.11,4.94-5.37,4.74-1.89,7.77-1.89c1.43,0,2.78.14,4.06.43,1.27.29,2.46.71,3.56,1.27s2.07,1.25,2.9,2.08l-1.38,2.83c-1.37-1.2-2.79-2.08-4.25-2.62-1.46-.54-3.11-.82-4.94-.82-3.46,0-6.11,1.07-7.92,3.22-1.82,2.15-2.73,5.2-2.73,9.15s.94,7.07,2.81,9.19c1.88,2.12,4.7,3.18,8.48,3.18,1.37,0,2.72-.13,4.04-.41,1.32-.27,2.56-.65,3.74-1.14l-.77,2.02v-10.69h-7.69v-2.79h10.74v14c-.77.4-1.73.77-2.88,1.09-1.15.33-2.35.59-3.61.77-1.26.19-2.48.28-3.65.28Z"/>
    <path class="cls-13" d="M393.46,164.95v-20.87h3.39v4.94h-.43c.49-1.69,1.33-2.97,2.53-3.84,1.2-.87,2.79-1.38,4.77-1.52l1.25-.13.26,3.01-2.19.26c-1.95.17-3.44.79-4.49,1.87-1.05,1.07-1.57,2.54-1.57,4.4v11.9h-3.52Z"/>
    <path class="cls-13" d="M416.52,165.34c-2.03,0-3.79-.44-5.28-1.33-1.49-.89-2.64-2.14-3.46-3.76-.82-1.62-1.22-3.53-1.22-5.73s.41-4.12,1.22-5.73c.82-1.62,1.97-2.87,3.46-3.76,1.49-.89,3.25-1.33,5.28-1.33s3.79.44,5.28,1.33c1.49.89,2.64,2.14,3.46,3.76.82,1.62,1.22,3.53,1.22,5.73s-.41,4.12-1.22,5.73c-.82,1.62-1.97,2.87-3.46,3.76-1.49.89-3.25,1.33-5.28,1.33ZM416.52,162.55c1.98,0,3.54-.69,4.7-2.08,1.16-1.39,1.74-3.37,1.74-5.95s-.58-4.6-1.74-5.97c-1.16-1.38-2.73-2.06-4.7-2.06s-3.51.69-4.68,2.06c-1.17,1.37-1.76,3.36-1.76,5.97s.59,4.56,1.76,5.95c1.17,1.39,2.73,2.08,4.68,2.08Z"/>
    <path class="cls-13" d="M438.13,165.34c-1.69,0-3.09-.31-4.19-.92-1.1-.62-1.93-1.54-2.49-2.77s-.84-2.76-.84-4.6v-12.97h3.48v12.93c0,1.23.16,2.25.49,3.07.33.82.85,1.42,1.57,1.8.71.39,1.6.58,2.66.58,1.2,0,2.25-.27,3.13-.82s1.59-1.3,2.1-2.28.77-2.12.77-3.44v-11.85h3.48v20.87h-3.39v-4.81h.56c-.57,1.69-1.51,2.98-2.81,3.87-1.3.89-2.81,1.33-4.53,1.33Z"/>
    <path class="cls-13" d="M453.84,172.68v-28.6h3.39v4.94h-.43c.46-1.63,1.37-2.93,2.73-3.89,1.36-.96,2.98-1.44,4.87-1.44s3.49.44,4.88,1.31,2.46,2.12,3.22,3.74c.76,1.62,1.14,3.54,1.14,5.78s-.38,4.12-1.14,5.73c-.76,1.62-1.83,2.87-3.2,3.76-1.37.89-3.01,1.33-4.9,1.33s-3.51-.48-4.85-1.44c-1.35-.96-2.26-2.24-2.75-3.84h.52v12.63h-3.48ZM463.68,162.55c1.98,0,3.54-.69,4.7-2.08,1.16-1.39,1.74-3.37,1.74-5.95s-.58-4.6-1.74-5.97c-1.16-1.38-2.73-2.06-4.7-2.06s-3.51.69-4.68,2.06c-1.17,1.37-1.76,3.36-1.76,5.97s.59,4.56,1.76,5.95c1.17,1.39,2.73,2.08,4.68,2.08Z"/>
  </g>
  <g>
    <g>
      <path class="cls-2" d="M213.71,101.94c-14.07-7.41-37.27-7.48-37.05-23.25.06-4.22-2.32-5.9-5.4-4.94-.76.24-1.55.63-2.37,1.19-2.01,1.37-4.63,3.48-7.43,6.16-1.76,1.69-3.6,3.61-5.38,5.72-5.09,6.03-11.38,15.85-12.9,25.12-.08.51-.16,1.01-.21,1.51-.2,1.88-.27,3.66-.22,5.34.04,1.37.16,2.67.35,3.92.39,2.48,1.06,4.73,1.99,6.76.83,1.82,1.87,3.46,3.07,4.94,2.03,2.51,4.54,4.54,7.38,6.17.75.43,1.49.81,2.23,1.17,5.69,2.75,11.16,3.47,16.1,2.48,2.21-.44,4.32-1.23,6.29-2.33.18-.1.36-.19.53-.29,10.28-6.08,8.04-17.6,20.05-25.95,5.48-3.81,9.86-5.58,13.52-6.73,4.05-1.28,4.03-4.59-.55-7Z"/>
      <g>
        <path class="cls-10" d="M171.26,73.75c-.82-6.82-2.37-12.87-3.3-16.33-2.61-9.67-6.12-19.12-12.7-19.07-7.15.06-10.7,8.56-15,19.04-4.38,10.69-6.93,15.3-10.84,17.37-5.41,2.87-15.35-1.21-19.03,3.29-1.66,2.04-2.03,5.32-1.5,9.07.39,2.77,1.28,5.81,2.49,8.78,1.14,2.81,2.57,5.57,4.15,8.01,3.65,5.65,8.35,9.98,14.13,12.48,1.34.58,2.75,1.06,4.21,1.44.11.03.22.06.34.08,2.09.51,4.31.81,6.64.87.31,0,.63.01.95.01s.62,0,.94-.02c1.86-.08,3.88-.41,5.94-1.01.15-.04.31-.09.46-.13.19-.06.38-.13.57-.19.91-.3,1.82-.65,2.74-1.06.36-.16.73-.33,1.09-.51,5.89-2.92,11.61-8.19,15.06-16.47,1.12-2.7,2.01-5.71,2.57-9.08.91-5.41.71-11.24.07-16.6Z"/>
        <path class="cls-7" d="M161.47,81.1s0,0,0,0h0c-.36-5.94-1.69-11.42-3.15-15.88-1.35-4.14-3.44-7.37-6.33-7.37-4.31,0-7.21,4.95-10.11,10.24-3.62,6.6-6.48,10.8-13.68,12.66-4.4,1.14-7.29,2.74-8.33,6.43-.25.9-.38,1.85-.41,2.82-.1,3.15.87,6.56,2.28,9.55,1.36,2.88,3.12,5.37,4.73,6.85,1.91,1.75,4.03,3.13,6.34,4.09,2.33.97,4.84,1.51,7.52,1.59.2,0,.39.01.59.01.78,0,1.54-.06,2.29-.15,0,0,0,0,0,0,0,0,0,0,0,0,8.91-1.17,15.28-9.04,17.28-17.73,1.03-4.46,1.26-8.9,1-13.11Z"/>
      </g>
      <g>
        <path class="cls-15" d="M164.35,159.49c-.02-.68-.08-1.44-.17-2.24-.31-2.76-1.09-6.18-2.71-9.63-.93-1.99-2.14-3.98-3.7-5.87-2.33-2.82-5.45-5.4-9.61-7.33-.37-.17-.75-.34-1.14-.51-.76-.32-1.54-.6-2.32-.84-1.56-.49-3.15-.81-4.74-.95-.99-.09-1.97-.1-2.95-.03-5.84.4-11.5,3.63-15.63,11.26-.64,1.19-1.5,2.51-2.51,3.88-4.48,6.12-11.88,13.43-16.44,16.63-2.82,1.98-5.43,3.08-5.32,4.49.2,2.67,10.28-1.41,22.76,4.75,11.95,5.9,15.69,13.95,22.66,18.01,6.89,4.02,13,.89,16.42-6.08,3.68-7.52,5.72-16.37,5.4-25.53Z"/>
        <path class="cls-3" d="M155.17,146.24c-2.8-1.05-5.44-2.76-7.52-5.47-.77-1-1.37-2.02-1.82-3.04-.7-1.57-1.05-3.14-1.12-4.67-1.56-.49-3.15-.81-4.74-.95-.99-.09-1.97-.1-2.95-.03-1.71,2.83-3.87,5.27-6.21,7.37-.19.17-.38.34-.57.5-2.45,2.27-3.71,5.09-6.06,8.53-1.29,1.89-2.91,3.96-5.24,6.23-4.68,4.56-1.43,7.86.1,9.34,5.81,5.61,20.47,13.03,28.24,9.19,4.58-2.27,9.57-5.84,10.31-16.78,0-.15.02-.29.03-.44.17-3.13-.73-6.64-2.45-9.78Z"/>
      </g>
      <g id="base">
        <path class="cls-22" d="M189.2,148.58c-3.39-2.02-6.34-3.87-9.04-6.68-1.88-1.95-3.64-4.36-5.35-7.61-.37-.7-.73-1.43-1.1-2.21-3.35-7.18-6.46-16.13-17.15-16.13-1.09,0-2.14.09-3.15.26-.32.05-.63.12-.94.19-.95.22-1.86.51-2.72.88-.18.08-.36.16-.54.24-.17.08-.34.17-.51.25-2.26,1.17-4.15,2.85-5.59,4.93-1.8,2.6-2.9,5.82-3.14,9.4-.09,1.4-.06,2.85.12,4.35.02.2.04.4.07.6,1.14,8.05,6.99,17.11,17.43,19.41.5.11,1,.21,1.52.29,1.73.26,3.42.42,5.08.5,12.18.57,22.11-3.3,25.2-4.62,1-.43,2.19-1.05,2.19-1.88,0-.65-.83-1.25-2.37-2.17Z"/>
      </g>
      <g>
        <path class="cls-16" d="M140.3,112.08c-1.91-9.92-8.7-17.54-20.86-22.07-3.15-1.17-6.66-2.14-10.54-2.88-3.16-.61-6.57-1.07-10.23-1.37-13.45-1.12-23.96-.15-31.34,2.54-5.56,2.03-8.22,5.62-8.71,8.87-.66,4.39,1.83,8.25,6.59,11.74,9.76,7.18,23.44,9.48,28.03,19.11,1.78,3.73,1.98,7.75,1.12,12.29-.88,4.62-2.11,8.33.56,10.66,2.74,2.39,7.8,2.3,16.24-.63,1.13-.39,4.09-1.38,7.72-3.11,3.5-1.67,7.63-4.05,11.36-7.27.18-.17.37-.34.57-.5,2.34-2.1,4.5-4.55,6.21-7.37,2.26-3.73,3.75-8.13,3.85-13.28,0-.2.01-.39.01-.59,0-2.13-.19-4.17-.57-6.13Z"/>
        <path class="cls-8" d="M134.2,118.71c.01-.26.02-.52.02-.79.03-2.6-.46-5.14-1.43-7.43-.46-1.09-1.03-2.12-1.71-3.08-2.43-3.44-5.72-5.98-9.36-7.86-3.29-1.7-6.85-2.85-10.33-3.65-6.36-1.45-12.41-1.69-15.86-1.78-9.94-.25-16.96,1.4-18.42,5.51-1.08,3.32-.02,6.41,5.22,9.57,13.68,8.24,15.71,12.2,18.95,20.6,3.18,8.24,14.25,11.39,23.91,4.71,3.52-2.44,5.95-5.56,7.4-8.93.33,1.86.5,3.68.5,5.38v.81h3.19v-.81c0-4.94-.89-8.88-2.09-12.25Z"/>
        <path class="cls-18" d="M134.22,117.92c.03-2.6-.46-5.14-1.43-7.43,2.33.97,4.84,1.51,7.52,1.59-1.91-9.91-8.7-17.54-20.86-22.07-3.15-1.17-6.66-2.14-10.54-2.88.39,2.77,1.28,5.81,2.49,8.78,1.14,2.81,2.57,5.57,4.15,8.01,3.65,5.65,8.35,9.98,14.13,12.48,0,0,0,0,0,0,1.4,2.91,2.39,6.1,2.93,9.18.33,1.86.5,3.68.5,5.38v.81h3.19v-.81c0-4.94-.89-8.88-2.09-12.25.01-.26.02-.52.02-.79Z"/>
        <path class="cls-20" d="M119.44,90c-.1,3.15.87,6.56,2.28,9.55,1.36,2.88,3.12,5.37,4.73,6.85,1.91,1.75,4.03,3.13,6.34,4.09,2.33.97,4.84,1.51,7.52,1.59-1.91-9.91-8.7-17.54-20.86-22.07Z"/>
        <path class="cls-11" d="M134.2,118.71c.01-.26.02-.52.02-.79.03-2.6-.46-5.14-1.43-7.43-.46-1.09-1.03-2.12-1.71-3.08-2.43-3.44-5.72-5.98-9.36-7.86-3.29-1.7-6.85-2.85-10.33-3.65,1.14,2.81,2.57,5.57,4.15,8.01,3.65,5.65,8.35,9.98,14.13,12.48,0,0,0,0,0,0,1.4,2.91,2.39,6.1,2.93,9.18.33,1.86.5,3.68.5,5.38v.81h3.19v-.81c0-4.94-.89-8.88-2.09-12.25Z"/>
        <path class="cls-1" d="M126.45,106.4c1.91,1.75,4.03,3.13,6.34,4.09-.46-1.09-1.03-2.12-1.71-3.08-2.43-3.44-5.72-5.98-9.36-7.86,1.36,2.88,3.12,5.37,4.73,6.85Z"/>
      </g>
      <g>
        <path class="cls-6" d="M168.62,99.42c-4.62.59-9.14,2.25-12.98,5.47-2.51,2.1-4.94,6.17-5.72,10.88-.25.57-.49,1.15-.72,1.75-.02.04-.03.08-.05.12-.87,2.26-1.62,4.75-2.06,7.64-.26,1.74-.42,3.62-.42,5.67v.8h3.19v-.8c0-2.14.26-4.37.73-6.57.18-.86.39-1.71.64-2.56,1.36-.65,2.85-.99,4.39-.95,7.86.23,10.71,6.09,11.85,10.57.45,1.74.99,3.4,1.62,4.97,2.09-.33,4.04-1.09,5.7-2.14,1.98-1.25,3.56-2.92,4.5-4.76,2.38-4.67,4.85-9.55,9.64-12.71,5.37-3.55,8.51-3.61,8.51-6.79,0-4.43-14.88-12.39-28.82-10.6Z"/>
        <path class="cls-21" d="M171.26,73.75c-.76.24-1.55.63-2.37,1.19-2.01,1.37-4.63,3.48-7.43,6.16-1.76,1.69-3.6,3.61-5.38,5.72-5.09,6.03-11.38,15.85-12.9,25.12-.08.51-.16,1.01-.21,1.51-.2,1.88-.27,3.66-.22,5.34,1.86-.08,3.88-.41,5.94-1.01.17-.09.34-.17.51-.25-.02.04-.03.08-.05.12-.87,2.26-1.62,4.75-2.06,7.64-.26,1.74-.42,3.62-.42,5.67v.8h3.19v-.8c0-2.14.26-4.37.73-6.57.18-.86.39-1.71.64-2.56.57-1.95,1.29-3.84,2.17-5.62.05-.11.1-.22.15-.32,0,0,0,0,0,0,5.89-2.92,11.61-8.19,15.06-16.47,1.12-2.7,2.01-5.71,2.57-9.08.91-5.41.71-11.24.07-16.6Z"/>
        <path class="cls-23" d="M156.09,86.82c-5.09,6.03-11.38,15.85-12.9,25.12,8.91-1.17,15.28-9.04,17.28-17.73,1.03-4.46,1.26-8.9,1-13.11-1.76,1.69-3.6,3.61-5.38,5.72Z"/>
        <path class="cls-17" d="M155.64,104.89c-2.51,2.1-4.94,6.17-5.72,10.88-.25.57-.49,1.15-.72,1.75-.02.04-.03.08-.05.12-.87,2.26-1.62,4.75-2.06,7.64-.26,1.74-.42,3.62-.42,5.67v.8h3.19v-.8c0-2.14.26-4.37.73-6.57.18-.86.39-1.71.64-2.56.57-1.95,1.29-3.84,2.17-5.62.05-.11.1-.22.15-.32,0,0,0,0,0,0,5.89-2.92,11.61-8.19,15.06-16.47-4.62.59-9.14,2.25-12.98,5.47Z"/>
      </g>
      <g>
        <g>
          <path class="cls-19" d="M155.17,146.24c1.71,3.14,2.62,6.65,2.45,9.78,0,.15-.02.3-.03.44.5.11,1,.21,1.52.29,1.73.26,3.42.42,5.08.5-.31-2.76-1.09-6.18-2.71-9.63-2.08-.18-4.23-.59-6.3-1.37Z"/>
          <path class="cls-9" d="M155.17,146.24c-2.8-1.05-5.44-2.76-7.52-5.47-.77-1-1.37-2.02-1.82-3.04-.7-1.57-1.05-3.14-1.12-4.67-1.56-.49-3.15-.81-4.74-.95-.09,1.4-.06,2.85.12,4.35.02.2.04.4.07.6,1.14,8.05,6.99,17.11,17.43,19.41,0-.15.02-.29.03-.44.17-3.13-.73-6.64-2.45-9.78Z"/>
          <path class="cls-12" d="M174.42,144.83c-.19-.19-.37-.4-.55-.61-1.99-2.17-3.56-4.81-4.77-7.8-.63-1.57-1.18-3.23-1.62-4.97-1.14-4.48-3.99-10.34-11.85-10.57-1.54-.05-3.04.3-4.39.95-.4.19-.79.41-1.17.66-1.13.73-2.14,1.68-2.97,2.8-.91,1.22-1.6,2.64-2,4.18-.3,1.14-.44,2.35-.39,3.59.06,1.53.42,3.11,1.12,4.67.46,1.03,1.05,2.05,1.82,3.04,2.09,2.71,4.73,4.42,7.52,5.47,2.07.78,4.22,1.19,6.3,1.37,5.19.45,9.91-.52,11.69-.85,2.43-.45,2.52-.68,1.27-1.93Z"/>
        </g>
        <path class="cls-5" d="M169.1,136.43c1.2,2.99,2.77,5.63,4.77,7.8,2.21-.44,4.32-1.23,6.29-2.33-1.88-1.95-3.64-4.36-5.35-7.61-1.66,1.05-3.6,1.81-5.7,2.14Z"/>
        <path class="cls-14" d="M156.56,115.95c-1.09,0-2.14.09-3.15.26-.88,1.77-1.6,3.67-2.17,5.62,1.36-.65,2.85-.99,4.39-.95,7.86.23,10.71,6.09,11.85,10.57.45,1.74.99,3.4,1.62,4.97,2.09-.33,4.04-1.09,5.7-2.14-.37-.7-.73-1.43-1.1-2.21-3.35-7.18-6.46-16.13-17.15-16.13Z"/>
      </g>
    </g>
    <path id="Fluer_Di_Lis" data-name="Fluer Di Lis" class="cls-13" d="M133.88,136c-.18,4.03-3.27,12.08-8.28,12.08-3.68,0-6.53-3.22-6.83-6.74,4.48,1.01,8.98-.03,9.59-5.21,0-.03,0-.08.01-.13h5.51ZM135.47,136c-.39,3.82-1.76,8.5-4.49,12.27,1.88,4.11,6.02,8.23,10.5,10.82,4.48-2.59,8.61-6.71,10.5-10.82-2.73-3.77-4.1-8.45-4.49-12.27h-12.01ZM154.61,136.13s0-.08-.01-.13h-5.51c.18,4.03,3.27,12.08,8.28,12.08,3.68,0,6.53-3.22,6.83-6.74-4.48,1.01-8.98-.03-9.59-5.21ZM167.85,104.34c-11.92.02-18.78,15.45-18.78,26.62h-1.58c0-15.29,8.62-20.62,8.62-30.87,0-4.94-2.62-10.6-8.11-14.72-.73-.55-4.36-3.26-6.5-5.58-2.15,2.32-5.77,5.03-6.5,5.58-5.5,4.12-8.11,9.78-8.11,14.72,0,10.25,8.62,15.57,8.62,30.87h-1.58c0-11.17-6.86-26.6-18.78-26.62-8.49-.01-14.35,8.09-12.6,16.13,1.17,5.38,6.08,10.1,11.91,9.29-.99-3.73.73-7.92,4.82-8.52,4.73-.68,7.6,4.16,8.48,9.71h-.08c-.96,0-1.74.78-1.74,1.74s.78,1.74,1.74,1.74h27.67c.96,0,1.74-.78,1.74-1.74s-.78-1.74-1.74-1.74h-.08c.88-5.55,3.76-10.4,8.48-9.71,4.09.59,5.81,4.79,4.82,8.52,5.83.81,10.74-3.92,11.91-9.29,1.75-8.04-4.11-16.14-12.6-16.13Z"/>
  </g>
</svg>