<?xml version="1.0" encoding="UTF-8"?>
<svg id="Scouts_AUS_Master_Vert_1Col_CMYK" xmlns="http://www.w3.org/2000/svg" viewBox="0 0 485.13 502.89">
  <defs>
    <style>
      .cls-1 {
        fill: #c1272a;
      }

      .cls-2 {
        fill: #7fbc42;
      }

      .cls-3 {
        fill: #bb6228;
      }

      .cls-4 {
        fill: #9f4040;
      }

      .cls-5 {
        fill: #2f9e49;
      }

      .cls-6 {
        fill: #fbaa19;
      }

      .cls-7 {
        fill: #ed1c24;
      }

      .cls-8 {
        fill: #803039;
      }

      .cls-9 {
        fill: #ffc62f;
      }

      .cls-10 {
        fill: #d9292c;
      }

      .cls-11 {
        fill: #79242f;
      }

      .cls-12 {
        fill: #fff;
      }

      .cls-13 {
        fill: #4f5b3b;
      }

      .cls-14 {
        fill: #de8d28;
      }

      .cls-15 {
        fill: #ea6952;
      }

      .cls-16 {
        fill: #008d51;
      }

      .cls-17 {
        fill: #eb8350;
      }

      .cls-18 {
        fill: #923938;
      }

      .cls-19 {
        fill: #de6940;
      }

      .cls-20 {
        fill: #9fc13f;
      }

      .cls-21 {
        fill: #a42036;
      }

      .cls-22 {
        fill: #ad9d42;
      }
    </style>
  </defs>
  <g>
    <g>
      <path class="cls-2" d="M369.73,157.81c-24.77-13.05-65.6-13.17-65.21-40.93.1-7.44-4.08-10.39-9.51-8.69-1.33.42-2.73,1.11-4.17,2.09-3.53,2.41-8.16,6.13-13.07,10.84-3.11,2.98-6.33,6.36-9.47,10.07-8.97,10.61-20.02,27.9-22.72,44.21-.15.89-.27,1.78-.37,2.66-.36,3.31-.47,6.44-.39,9.4.07,2.41.28,4.71.62,6.9.68,4.37,1.87,8.33,3.51,11.9,1.47,3.21,3.29,6.1,5.4,8.7,3.58,4.41,8,8,12.99,10.86,1.31.75,2.62,1.42,3.92,2.05,10.02,4.85,19.65,6.11,28.34,4.37,3.89-.78,7.6-2.17,11.07-4.1.31-.17.63-.33.94-.51,18.1-10.71,14.15-30.97,35.29-45.67,9.65-6.71,17.35-9.81,23.8-11.85,7.12-2.25,7.09-8.07-.96-12.31Z"/>
      <g>
        <path class="cls-9" d="M295.01,108.2c-1.44-12-4.17-22.65-5.81-28.75-4.59-17.03-10.77-33.66-22.35-33.57-12.59.11-18.84,15.07-26.4,33.52-7.72,18.82-12.19,26.93-19.08,30.58-9.53,5.05-27.02-2.14-33.5,5.79-2.93,3.59-3.57,9.36-2.63,15.96.69,4.88,2.25,10.22,4.38,15.46,2.01,4.94,4.52,9.8,7.31,14.11,6.43,9.95,14.69,17.57,24.88,21.97,2.37,1.02,4.84,1.87,7.41,2.53.2.05.39.1.59.15,3.69.9,7.58,1.43,11.69,1.54.55.02,1.11.03,1.67.03s1.1-.01,1.65-.04c3.28-.14,6.82-.72,10.46-1.78.27-.08.54-.15.81-.23.34-.1.67-.22,1.01-.33,1.6-.53,3.21-1.14,4.82-1.86.64-.29,1.28-.59,1.92-.91,10.36-5.14,20.45-14.41,26.51-28.99,1.98-4.75,3.53-10.06,4.53-15.98,1.6-9.52,1.25-19.78.12-29.22Z"/>
        <path class="cls-6" d="M277.77,121.13s0,0,0,0h0c-.64-10.45-2.98-20.11-5.55-27.95-2.38-7.29-6.06-12.97-11.15-12.97-7.58,0-12.69,8.71-17.8,18.03-6.38,11.61-11.41,19.02-24.08,22.29-7.75,2-12.84,4.83-14.67,11.32-.45,1.59-.68,3.26-.73,4.97-.17,5.54,1.53,11.54,4.01,16.81,2.39,5.07,5.49,9.45,8.32,12.05,3.36,3.08,7.1,5.51,11.16,7.2,4.09,1.71,8.52,2.67,13.23,2.79.35,0,.69.02,1.05.02,1.37,0,2.71-.1,4.02-.27,0,0,0,0,0,0,0,0,0,0,0,0,15.68-2.05,26.89-15.92,30.42-31.21,1.82-7.86,2.21-15.67,1.76-23.08Z"/>
      </g>
      <g>
        <path class="cls-14" d="M282.84,259.13c-.04-1.2-.14-2.53-.3-3.95-.55-4.86-1.92-10.88-4.76-16.96-1.64-3.49-3.77-7-6.52-10.33-4.11-4.96-9.6-9.5-16.91-12.91-.66-.31-1.32-.61-2-.89-1.34-.56-2.71-1.06-4.08-1.49-2.75-.86-5.54-1.43-8.35-1.68-1.73-.15-3.47-.17-5.2-.05-10.28.71-20.25,6.39-27.51,19.82-1.13,2.1-2.65,4.41-4.42,6.83-7.88,10.77-20.91,23.65-28.93,29.28-4.97,3.48-9.56,5.42-9.37,7.9.35,4.7,18.1-2.48,40.07,8.36,21.03,10.38,27.61,24.55,39.88,31.7,12.13,7.08,22.89,1.57,28.9-10.71,6.48-13.23,10.06-28.81,9.51-44.94Z"/>
        <path class="cls-3" d="M266.68,235.81c-4.92-1.85-9.57-4.86-13.25-9.63-1.36-1.76-2.4-3.55-3.21-5.36-1.23-2.76-1.86-5.53-1.96-8.22-2.75-.86-5.54-1.43-8.35-1.68-1.73-.15-3.47-.17-5.2-.05-3.02,4.98-6.81,9.28-10.93,12.98-.33.3-.67.59-1,.88-4.32,4-6.54,8.96-10.67,15.02-2.27,3.32-5.12,6.97-9.22,10.97-8.24,8.03-2.52,13.84.18,16.45,10.22,9.87,36.03,22.94,49.72,16.17,8.07-3.99,16.85-10.29,18.14-29.54.02-.26.04-.52.05-.78.31-5.5-1.29-11.68-4.31-17.21Z"/>
      </g>
      <g id="base">
        <path class="cls-21" d="M326.59,239.92c-5.97-3.55-11.15-6.82-15.92-11.76-3.31-3.43-6.41-7.68-9.42-13.4-.65-1.23-1.29-2.51-1.93-3.88-5.9-12.64-11.37-28.4-30.19-28.4-1.92,0-3.77.16-5.54.47-.56.1-1.11.21-1.65.33-1.68.38-3.28.9-4.79,1.55-.32.14-.64.28-.95.43-.3.14-.6.29-.9.45-3.98,2.06-7.31,5.02-9.84,8.68-3.18,4.58-5.1,10.24-5.53,16.55-.17,2.46-.1,5.02.21,7.65.04.35.08.71.13,1.06,2.01,14.16,12.3,30.11,30.68,34.16.87.19,1.76.37,2.67.51,3.04.46,6.02.74,8.93.87,21.43,1.01,38.92-5.81,44.36-8.13,1.76-.75,3.85-1.85,3.85-3.31,0-1.14-1.46-2.2-4.17-3.81Z"/>
      </g>
      <g>
        <path class="cls-15" d="M240.51,175.66c-3.36-17.45-15.32-30.88-36.72-38.85-5.55-2.07-11.73-3.76-18.55-5.07-5.57-1.07-11.56-1.88-18-2.42-23.68-1.97-42.17-.27-55.16,4.47-9.78,3.57-14.48,9.89-15.34,15.61-1.17,7.73,3.23,14.52,11.6,20.67,17.18,12.64,41.26,16.68,49.35,33.63,3.13,6.57,3.49,13.65,1.96,21.63-1.56,8.13-3.71,14.67.98,18.76,4.82,4.21,13.72,4.05,28.58-1.1,1.99-.69,7.19-2.42,13.59-5.48,6.16-2.94,13.43-7.12,19.99-12.79.32-.3.66-.59,1-.88,4.12-3.7,7.92-8,10.93-12.98,3.98-6.57,6.6-14.31,6.78-23.38,0-.35.02-.69.02-1.04,0-3.75-.34-7.34-1-10.79Z"/>
        <path class="cls-7" d="M229.76,187.34c.02-.46.04-.92.04-1.38.05-4.58-.81-9.05-2.52-13.08-.81-1.92-1.82-3.74-3.01-5.42-4.27-6.05-10.07-10.52-16.47-13.83-5.78-2.99-12.07-5.02-18.19-6.42-11.19-2.56-21.84-2.98-27.91-3.14-17.5-.45-29.85,2.46-32.42,9.71-1.9,5.84-.03,11.29,9.19,16.84,24.07,14.5,27.66,21.48,33.35,36.26,5.59,14.51,25.09,20.05,42.09,8.29,6.2-4.29,10.48-9.8,13.02-15.72.58,3.27.87,6.48.87,9.47v1.42h5.62v-1.42c0-8.7-1.56-15.63-3.67-21.57Z"/>
        <path class="cls-17" d="M229.8,185.96c.05-4.58-.81-9.05-2.52-13.08,4.09,1.71,8.52,2.67,13.23,2.79-3.36-17.45-15.32-30.88-36.72-38.85-5.55-2.07-11.73-3.76-18.55-5.08.69,4.88,2.25,10.22,4.38,15.46,2.01,4.94,4.52,9.8,7.31,14.11,6.43,9.95,14.69,17.57,24.88,21.97,0,0,0,0-.01,0,2.47,5.12,4.2,10.74,5.16,16.16.58,3.27.87,6.48.87,9.47v1.42h5.62v-1.42c0-8.7-1.56-15.63-3.67-21.57.02-.46.04-.92.04-1.38Z"/>
        <path class="cls-19" d="M203.79,136.81c-.17,5.54,1.53,11.54,4.01,16.81,2.39,5.07,5.49,9.45,8.32,12.05,3.36,3.08,7.1,5.51,11.16,7.2,4.09,1.71,8.52,2.67,13.23,2.79-3.36-17.45-15.32-30.88-36.72-38.85Z"/>
        <path class="cls-10" d="M229.76,187.34c.02-.46.04-.92.04-1.38.05-4.58-.81-9.05-2.52-13.08-.81-1.92-1.82-3.74-3.01-5.42-4.27-6.05-10.07-10.52-16.47-13.83-5.78-2.99-12.07-5.02-18.19-6.42,2.01,4.94,4.52,9.8,7.31,14.11,6.43,9.95,14.69,17.57,24.88,21.97,0,0,0,0-.01,0,2.47,5.12,4.2,10.74,5.16,16.16.58,3.27.87,6.48.87,9.47v1.42h5.62v-1.42c0-8.7-1.56-15.63-3.67-21.57Z"/>
        <path class="cls-1" d="M216.13,165.67c3.36,3.08,7.1,5.51,11.16,7.2-.81-1.92-1.82-3.74-3.01-5.42-4.27-6.05-10.07-10.52-16.47-13.83,2.39,5.07,5.49,9.45,8.32,12.05Z"/>
      </g>
      <g>
        <path class="cls-5" d="M290.37,153.39c-8.13,1.04-16.09,3.97-22.84,9.63-4.41,3.69-8.7,10.86-10.06,19.15-.44,1-.86,2.03-1.27,3.09-.03.07-.05.14-.08.21-1.54,3.97-2.86,8.37-3.63,13.46-.47,3.06-.74,6.36-.74,9.98v1.42h5.62v-1.42c0-3.77.46-7.68,1.28-11.57.32-1.51.69-3.01,1.12-4.5,2.39-1.14,5.01-1.75,7.73-1.67,13.83.41,18.85,10.72,20.86,18.61.78,3.07,1.74,5.99,2.86,8.76,3.69-.58,7.11-1.92,10.03-3.77,3.48-2.21,6.26-5.14,7.91-8.38,4.19-8.23,8.53-16.8,16.97-22.38,9.45-6.24,14.98-6.36,14.98-11.95,0-7.8-26.19-21.81-50.74-18.67Z"/>
        <path class="cls-20" d="M295.01,108.2c-1.33.42-2.73,1.11-4.17,2.09-3.53,2.41-8.16,6.13-13.07,10.84-3.11,2.98-6.33,6.36-9.47,10.07-8.97,10.61-20.02,27.9-22.72,44.21-.15.89-.27,1.78-.37,2.66-.36,3.31-.47,6.43-.39,9.4,3.28-.14,6.82-.72,10.46-1.78.3-.15.59-.3.9-.45-.03.07-.05.14-.08.21-1.54,3.97-2.86,8.37-3.63,13.46-.47,3.06-.74,6.36-.74,9.98v1.42h5.62v-1.42c0-3.77.46-7.68,1.28-11.57.32-1.51.69-3.01,1.12-4.5,1-3.43,2.28-6.77,3.82-9.89.09-.19.17-.38.26-.56,0,0,0,0,0-.01,10.36-5.14,20.45-14.41,26.51-28.99,1.98-4.75,3.53-10.06,4.53-15.98,1.6-9.52,1.25-19.78.12-29.22Z"/>
        <path class="cls-22" d="M268.3,131.2c-8.97,10.61-20.02,27.9-22.72,44.21,15.68-2.05,26.89-15.92,30.42-31.21,1.82-7.86,2.21-15.67,1.76-23.08-3.11,2.98-6.33,6.36-9.47,10.07Z"/>
        <path class="cls-16" d="M267.52,163.02c-4.41,3.69-8.7,10.86-10.06,19.15-.44,1-.86,2.03-1.27,3.09-.03.07-.05.14-.08.21-1.54,3.97-2.86,8.37-3.63,13.46-.47,3.06-.74,6.36-.74,9.98v1.42h5.62v-1.42c0-3.77.46-7.68,1.28-11.57.32-1.51.69-3.01,1.12-4.5,1-3.43,2.28-6.77,3.82-9.89.09-.19.17-.38.26-.56,0,0,0,0,0-.01,10.36-5.14,20.45-14.41,26.51-28.99-8.13,1.04-16.09,3.97-22.84,9.63Z"/>
      </g>
      <g>
        <g>
          <path class="cls-18" d="M266.68,235.81c3.02,5.53,4.61,11.7,4.31,17.21-.01.27-.04.52-.05.78.87.19,1.76.37,2.67.51,3.04.46,6.02.74,8.93.87-.55-4.86-1.92-10.88-4.76-16.96-3.66-.32-7.45-1.04-11.1-2.41Z"/>
          <path class="cls-8" d="M266.68,235.81c-4.92-1.85-9.57-4.86-13.25-9.63-1.36-1.76-2.4-3.55-3.21-5.36-1.23-2.76-1.86-5.53-1.96-8.22-2.75-.86-5.54-1.43-8.35-1.68-.17,2.46-.1,5.02.21,7.65.04.35.08.71.13,1.06,2.01,14.16,12.3,30.11,30.68,34.16.02-.26.04-.52.05-.78.31-5.5-1.29-11.68-4.31-17.21Z"/>
          <path class="cls-11" d="M300.58,233.33c-.34-.34-.65-.71-.98-1.07-3.51-3.81-6.27-8.46-8.39-13.73-1.12-2.77-2.07-5.69-2.86-8.76-2.01-7.89-7.03-18.2-20.86-18.61-2.72-.08-5.34.53-7.73,1.67-.71.34-1.39.73-2.06,1.16-2,1.29-3.78,2.96-5.24,4.93-1.6,2.15-2.81,4.65-3.52,7.35-.53,2.01-.78,4.14-.69,6.32.11,2.69.74,5.47,1.96,8.22.8,1.81,1.85,3.6,3.21,5.36,3.68,4.77,8.33,7.78,13.25,9.63,3.64,1.37,7.43,2.09,11.1,2.41,9.13.8,17.45-.92,20.57-1.49,4.27-.79,4.43-1.19,2.23-3.4Z"/>
        </g>
        <path class="cls-4" d="M291.22,218.54c2.12,5.26,4.88,9.91,8.39,13.73,3.89-.78,7.6-2.17,11.07-4.1-3.31-3.43-6.41-7.68-9.42-13.4-2.92,1.85-6.34,3.19-10.03,3.77Z"/>
        <path class="cls-13" d="M269.13,182.49c-1.92,0-3.77.16-5.54.47-1.54,3.12-2.82,6.46-3.82,9.89,2.39-1.14,5.01-1.75,7.73-1.67,13.83.41,18.85,10.72,20.86,18.61.78,3.07,1.74,5.99,2.86,8.76,3.69-.58,7.11-1.92,10.03-3.77-.65-1.23-1.29-2.51-1.93-3.88-5.9-12.64-11.37-28.4-30.19-28.4Z"/>
      </g>
    </g>
    <path id="Fluer_Di_Lis" data-name="Fluer Di Lis" class="cls-12" d="M229.21,217.79c-.32,7.1-5.76,21.26-14.58,21.26-6.47,0-11.5-5.67-12.02-11.86,7.89,1.78,15.8-.06,16.87-9.17,0-.05.01-.13.02-.22h9.71ZM232.01,217.79c-.69,6.73-3.1,14.96-7.9,21.6,3.31,7.23,10.59,14.49,18.48,19.04,7.88-4.55,15.16-11.81,18.48-19.04-4.8-6.64-7.21-14.87-7.9-21.6h-21.15ZM265.69,218.01c0-.05-.01-.13-.02-.22h-9.71c.32,7.1,5.76,21.26,14.58,21.26,6.47,0,11.5-5.67,12.02-11.86-7.89,1.78-15.8-.06-16.87-9.17ZM289.01,162.05c-20.98.03-33.07,27.2-33.07,46.86h-2.79c0-26.92,15.17-36.29,15.17-54.33,0-8.69-4.61-18.66-14.28-25.91-1.29-.97-7.67-5.74-11.45-9.82-3.78,4.08-10.15,8.85-11.45,9.82-9.67,7.25-14.28,17.22-14.28,25.91,0,18.04,15.17,27.41,15.17,54.33h-2.79c0-19.66-12.08-46.83-33.07-46.86-14.94-.02-25.25,14.24-22.17,28.39,2.07,9.47,10.7,17.78,20.96,16.36-1.74-6.57,1.28-13.95,8.48-14.99,8.32-1.2,13.38,7.32,14.93,17.1h-.14c-1.69,0-3.06,1.37-3.06,3.06s1.37,3.06,3.06,3.06h48.71c1.69,0,3.06-1.37,3.06-3.06s-1.37-3.06-3.06-3.06h-.14c1.56-9.77,6.61-18.3,14.93-17.1,7.2,1.04,10.22,8.43,8.48,14.99,10.26,1.42,18.9-6.89,20.96-16.36,3.08-14.15-7.23-28.41-22.17-28.39Z"/>
  </g>
  <g>
    <path d="M73.57,403.56v-8.06h10.02v-28.42h4.63l-12.31,7.23-3.68-7.17,14.21-8.31h6.98v36.67h9.39v8.06h-29.24Z"/>
    <path d="M120.01,404.2c-1.82,0-3.57-.14-5.27-.41-1.69-.27-3.24-.67-4.63-1.17-1.4-.51-2.62-1.16-3.68-1.97l2.28-6.15c1.06.59,2.21,1.14,3.46,1.65,1.25.51,2.55.89,3.9,1.14,1.35.25,2.69.38,4,.38,1.78,0,3.09-.29,3.93-.89.85-.59,1.27-1.35,1.27-2.28,0-.8-.28-1.41-.82-1.81-.55-.4-1.35-.71-2.41-.92l-6.72-1.21c-2.58-.51-4.58-1.48-5.99-2.92-1.42-1.44-2.12-3.3-2.12-5.58,0-2.16.59-4,1.78-5.52,1.18-1.52,2.82-2.7,4.92-3.52,2.09-.82,4.47-1.24,7.14-1.24,1.52,0,3,.13,4.44.38,1.44.25,2.8.63,4.09,1.14,1.29.51,2.46,1.16,3.52,1.97l-2.47,6.15c-.8-.59-1.76-1.12-2.85-1.59-1.1-.46-2.22-.82-3.36-1.08-1.14-.25-2.2-.38-3.17-.38-1.95,0-3.35.3-4.22.89-.87.59-1.3,1.35-1.3,2.28,0,.72.25,1.32.76,1.81.51.49,1.27.82,2.28.98l6.72,1.14c2.71.51,4.78,1.45,6.22,2.82,1.44,1.38,2.16,3.23,2.16,5.55,0,2.2-.57,4.07-1.71,5.61-1.14,1.54-2.75,2.72-4.82,3.52-2.07.8-4.5,1.21-7.29,1.21Z"/>
    <path d="M153.69,404.2c-4.44,0-7.73-1.07-9.86-3.2-2.14-2.13-3.2-5.3-3.2-9.48v-11.99h-5.9v-7.04h5.9v-9.2h9.58v9.2h9.13v7.04h-9.13v11.61c0,1.78.4,3.1,1.21,3.96.8.87,2.11,1.3,3.93,1.3.51,0,1.08-.05,1.71-.16.63-.1,1.33-.26,2.09-.48l1.33,6.98c-.85.47-1.89.82-3.14,1.08-1.25.25-2.46.38-3.65.38Z"/>
    <path d="M180.71,403.56v-44.72h20.49c4.78,0,8.47,1.04,11.07,3.11,2.6,2.07,3.9,4.91,3.9,8.5,0,2.67-.76,4.93-2.28,6.79-1.52,1.86-3.6,3.11-6.22,3.74v-.95c2.03.3,3.76.93,5.2,1.9,1.44.97,2.54,2.22,3.3,3.74s1.14,3.3,1.14,5.33c0,2.58-.61,4.82-1.84,6.72-1.23,1.9-3,3.35-5.33,4.35-2.33.99-5.07,1.49-8.25,1.49h-21.19ZM190.17,377.17h9.32c2.45,0,4.27-.45,5.46-1.36,1.18-.91,1.78-2.27,1.78-4.09s-.59-3.25-1.78-4.16c-1.18-.91-3-1.36-5.46-1.36h-9.32v10.97ZM190.17,396.2h10.47c1.01,0,1.91-.07,2.7-.22.78-.15,1.46-.37,2.03-.67.57-.3,1.05-.69,1.43-1.17.38-.49.67-1.04.86-1.65.19-.61.29-1.3.29-2.06,0-.8-.1-1.53-.29-2.19-.19-.66-.48-1.21-.86-1.65-.38-.44-.86-.82-1.43-1.14-.57-.32-1.25-.55-2.03-.7-.78-.15-1.68-.22-2.7-.22h-10.47v11.67Z"/>
    <path d="M233.68,404.2c-2.37,0-4.44-.43-6.22-1.3s-3.17-2.05-4.19-3.55c-1.02-1.5-1.52-3.22-1.52-5.17,0-2.28.59-4.08,1.78-5.39,1.18-1.31,3.1-2.26,5.74-2.85,2.64-.59,6.16-.89,10.56-.89h3.36v4.95h-3.3c-1.61,0-2.98.06-4.12.19-1.14.13-2.07.35-2.79.67-.72.32-1.24.72-1.55,1.21-.32.49-.48,1.07-.48,1.75,0,1.14.41,2.09,1.24,2.85.82.76,2,1.14,3.52,1.14,1.23,0,2.33-.27,3.3-.83.97-.55,1.73-1.31,2.28-2.28.55-.97.82-2.13.82-3.49v-7.23c0-1.86-.42-3.18-1.27-3.96-.85-.78-2.31-1.17-4.38-1.17-1.65,0-3.42.25-5.3.76-1.88.51-3.73,1.31-5.55,2.41l-2.6-6.34c1.1-.76,2.42-1.44,3.96-2.03,1.54-.59,3.19-1.05,4.95-1.36,1.75-.32,3.39-.48,4.92-.48,3.26,0,5.95.48,8.09,1.43,2.14.95,3.72,2.42,4.76,4.41,1.04,1.99,1.55,4.5,1.55,7.55v18.4h-8.94v-6.22h.44c-.25,1.4-.79,2.6-1.62,3.62-.82,1.01-1.86,1.81-3.11,2.38-1.25.57-2.7.86-4.35.86Z"/>
    <path d="M269.08,404.2c-3.97,0-6.89-1.04-8.75-3.11s-2.79-5.18-2.79-9.33v-32.92h9.58v32.54c0,1.1.17,2.03.51,2.79.34.76.83,1.32,1.49,1.68s1.49.54,2.51.54c.46,0,.92,0,1.37-.03.44-.02.86-.09,1.24-.22l-.06,7.42c-.85.21-1.67.37-2.47.48-.8.11-1.67.16-2.6.16Z"/>
    <path d="M277.89,403.56v-31.08h9.39v5.84h-.7c.59-1.35,1.36-2.52,2.31-3.49.95-.97,2.1-1.72,3.46-2.25,1.35-.53,2.83-.79,4.44-.79,2.41,0,4.42.57,6.03,1.71,1.61,1.14,2.75,2.88,3.43,5.2h-.89c.93-2.11,2.37-3.79,4.31-5.04,1.94-1.25,4.14-1.87,6.6-1.87s4.33.47,5.9,1.4c1.56.93,2.73,2.38,3.49,4.34.76,1.97,1.14,4.43,1.14,7.39v18.65h-9.58v-18.33c0-2.11-.32-3.65-.95-4.6-.63-.95-1.78-1.43-3.42-1.43-1.14,0-2.15.28-3.01.82-.87.55-1.53,1.38-2,2.47-.47,1.1-.7,2.43-.7,4v17.06h-9.58v-18.33c0-2.11-.34-3.65-1.01-4.6-.68-.95-1.78-1.43-3.3-1.43-1.18,0-2.21.28-3.08.82-.87.55-1.53,1.38-2,2.47-.47,1.1-.7,2.43-.7,4v17.06h-9.58Z"/>
    <path d="M343.87,404.2c-2.37,0-4.44-.43-6.22-1.3-1.78-.87-3.17-2.05-4.19-3.55-1.01-1.5-1.52-3.22-1.52-5.17,0-2.28.59-4.08,1.78-5.39,1.18-1.31,3.1-2.26,5.74-2.85,2.64-.59,6.16-.89,10.56-.89h3.36v4.95h-3.3c-1.61,0-2.98.06-4.12.19s-2.07.35-2.79.67c-.72.32-1.24.72-1.55,1.21-.32.49-.48,1.07-.48,1.75,0,1.14.41,2.09,1.24,2.85.82.76,2,1.14,3.52,1.14,1.23,0,2.33-.27,3.3-.83.97-.55,1.73-1.31,2.28-2.28.55-.97.83-2.13.83-3.49v-7.23c0-1.86-.42-3.18-1.27-3.96-.85-.78-2.3-1.17-4.38-1.17-1.65,0-3.42.25-5.3.76-1.88.51-3.73,1.31-5.55,2.41l-2.6-6.34c1.1-.76,2.42-1.44,3.96-2.03,1.54-.59,3.19-1.05,4.95-1.36,1.75-.32,3.39-.48,4.92-.48,3.26,0,5.95.48,8.09,1.43,2.13.95,3.72,2.42,4.76,4.41,1.04,1.99,1.55,4.5,1.55,7.55v18.4h-8.94v-6.22h.44c-.25,1.4-.79,2.6-1.62,3.62-.83,1.01-1.86,1.81-3.11,2.38-1.25.57-2.7.86-4.35.86Z"/>
    <path d="M367.34,366.39v-8.88h10.4v8.88h-10.4ZM367.72,403.56v-31.08h9.58v31.08h-9.58Z"/>
    <path d="M383.83,403.56v-31.08h9.39v5.84h-.7c.93-2.11,2.37-3.73,4.31-4.85,1.94-1.12,4.12-1.68,6.53-1.68,2.54,0,4.6.48,6.19,1.43,1.58.95,2.78,2.4,3.58,4.35.8,1.95,1.21,4.4,1.21,7.36v18.65h-9.58v-18.27c0-1.44-.17-2.6-.51-3.49-.34-.89-.86-1.54-1.55-1.97-.7-.42-1.58-.63-2.63-.63-1.35,0-2.53.29-3.52.86-.99.57-1.77,1.38-2.32,2.41s-.82,2.27-.82,3.71v17.38h-9.58Z"/>
  </g>
  <g>
    <path d="M141.08,454.85c-1.58,0-3.06-.14-4.45-.43-1.39-.29-2.66-.69-3.82-1.22-1.16-.53-2.21-1.18-3.16-1.95l1.25-2.83c.97.72,1.97,1.32,2.98,1.83,1.02.5,2.12.87,3.31,1.12,1.19.24,2.48.37,3.89.37,2.58,0,4.49-.48,5.73-1.44,1.25-.96,1.87-2.23,1.87-3.8,0-.83-.19-1.55-.58-2.15-.39-.6-1.02-1.12-1.89-1.55-.87-.43-2.01-.79-3.41-1.07l-4.47-.9c-2.69-.57-4.7-1.51-6.03-2.81-1.33-1.3-2-3.04-2-5.22,0-1.8.47-3.38,1.4-4.72.93-1.35,2.23-2.39,3.91-3.14,1.68-.74,3.59-1.12,5.73-1.12,1.37,0,2.68.14,3.91.43,1.23.29,2.37.71,3.41,1.27,1.04.56,1.97,1.24,2.77,2.04l-1.25,2.75c-1.29-1.17-2.65-2.03-4.08-2.56-1.43-.53-3.04-.79-4.81-.79-1.52,0-2.83.23-3.93.69-1.1.46-1.96,1.12-2.58,2-.62.87-.92,1.88-.92,3.03,0,1.38.42,2.46,1.27,3.26.84.8,2.23,1.39,4.14,1.76l4.47.95c2.89.6,5.03,1.51,6.42,2.73,1.39,1.22,2.08,2.87,2.08,4.96,0,1.66-.45,3.14-1.35,4.45s-2.19,2.31-3.87,3.03c-1.67.72-3.66,1.07-5.95,1.07Z"/>
    <path d="M165.09,454.85c-2.09,0-3.89-.46-5.41-1.38-1.52-.92-2.68-2.2-3.5-3.84-.82-1.65-1.22-3.56-1.22-5.73s.41-4.11,1.22-5.71,1.98-2.83,3.5-3.69c1.52-.86,3.32-1.29,5.41-1.29,1.29,0,2.56.23,3.82.69,1.26.46,2.3,1.1,3.14,1.93l-1.2,2.53c-.83-.8-1.74-1.39-2.73-1.76-.99-.37-1.93-.56-2.81-.56-2.18,0-3.85.68-5.02,2.04-1.17,1.36-1.76,3.31-1.76,5.86s.59,4.46,1.76,5.91c1.17,1.45,2.85,2.17,5.02,2.17.89,0,1.83-.19,2.81-.56.99-.37,1.9-.97,2.73-1.8l1.2,2.53c-.83.83-1.88,1.48-3.16,1.95-1.27.47-2.54.71-3.8.71Z"/>
    <path d="M183.81,454.85c-2.03,0-3.79-.44-5.28-1.33-1.49-.89-2.64-2.14-3.46-3.76-.82-1.62-1.22-3.53-1.22-5.73s.41-4.12,1.22-5.73c.82-1.62,1.97-2.87,3.46-3.76,1.49-.89,3.25-1.33,5.28-1.33s3.79.44,5.28,1.33c1.49.89,2.64,2.14,3.46,3.76.82,1.62,1.22,3.53,1.22,5.73s-.41,4.12-1.22,5.73c-.82,1.62-1.97,2.87-3.46,3.76-1.49.89-3.25,1.33-5.28,1.33ZM183.81,452.06c1.98,0,3.54-.69,4.7-2.08,1.16-1.39,1.74-3.37,1.74-5.95s-.58-4.6-1.74-5.97c-1.16-1.38-2.73-2.06-4.7-2.06s-3.51.69-4.68,2.06c-1.17,1.37-1.76,3.36-1.76,5.97s.59,4.56,1.76,5.95c1.17,1.39,2.73,2.08,4.68,2.08Z"/>
    <path d="M205.41,454.85c-1.69,0-3.09-.31-4.19-.92-1.1-.62-1.93-1.54-2.49-2.77-.56-1.23-.84-2.76-.84-4.6v-12.97h3.48v12.93c0,1.23.16,2.25.49,3.07.33.82.85,1.42,1.57,1.8.72.39,1.6.58,2.66.58,1.2,0,2.25-.27,3.14-.82.89-.54,1.59-1.3,2.1-2.28.52-.97.77-2.12.77-3.44v-11.85h3.48v20.87h-3.39v-4.81h.56c-.57,1.69-1.51,2.98-2.81,3.87-1.3.89-2.81,1.33-4.53,1.33Z"/>
    <path d="M229.51,454.85c-2.46,0-4.31-.66-5.54-1.98-1.23-1.32-1.85-3.19-1.85-5.63v-10.95h-4.08v-2.71h4.08v-6.4h3.48v6.4h6.61v2.71h-6.61v10.61c0,1.63.34,2.87,1.03,3.71.69.84,1.8,1.27,3.35,1.27.46,0,.92-.06,1.37-.17.46-.11.87-.23,1.25-.34l.6,2.66c-.37.2-.92.39-1.63.56-.72.17-1.4.26-2.06.26Z"/>
    <path d="M259.53,454.85c-3.24,0-5.96-.62-8.18-1.85-2.22-1.23-3.9-3.01-5.05-5.33-1.15-2.32-1.72-5.1-1.72-8.33s.57-5.97,1.72-8.29c1.15-2.32,2.79-4.11,4.94-5.37s4.74-1.89,7.77-1.89c1.43,0,2.78.14,4.06.43,1.27.29,2.46.71,3.56,1.27s2.07,1.25,2.9,2.08l-1.38,2.83c-1.37-1.2-2.79-2.08-4.25-2.62-1.46-.54-3.11-.82-4.94-.82-3.46,0-6.11,1.07-7.92,3.22-1.82,2.15-2.73,5.2-2.73,9.15s.94,7.07,2.81,9.19c1.88,2.12,4.7,3.18,8.48,3.18,1.37,0,2.72-.13,4.04-.41,1.32-.27,2.56-.65,3.74-1.14l-.77,2.02v-10.69h-7.69v-2.79h10.74v14c-.77.4-1.73.77-2.88,1.09-1.15.33-2.35.59-3.61.77-1.26.19-2.48.28-3.65.28Z"/>
    <path d="M275.42,454.47v-20.87h3.39v4.94h-.43c.49-1.69,1.33-2.97,2.53-3.84,1.2-.87,2.79-1.38,4.77-1.52l1.25-.13.26,3.01-2.19.26c-1.95.17-3.44.79-4.49,1.87-1.05,1.07-1.57,2.54-1.57,4.4v11.9h-3.52Z"/>
    <path d="M298.48,454.85c-2.03,0-3.79-.44-5.28-1.33-1.49-.89-2.64-2.14-3.46-3.76-.82-1.62-1.22-3.53-1.22-5.73s.41-4.12,1.22-5.73c.82-1.62,1.97-2.87,3.46-3.76,1.49-.89,3.25-1.33,5.28-1.33s3.79.44,5.28,1.33c1.49.89,2.64,2.14,3.46,3.76.82,1.62,1.22,3.53,1.22,5.73s-.41,4.12-1.22,5.73c-.82,1.62-1.97,2.87-3.46,3.76-1.49.89-3.25,1.33-5.28,1.33ZM298.48,452.06c1.98,0,3.54-.69,4.7-2.08,1.16-1.39,1.74-3.37,1.74-5.95s-.58-4.6-1.74-5.97c-1.16-1.38-2.73-2.06-4.7-2.06s-3.51.69-4.68,2.06c-1.17,1.37-1.76,3.36-1.76,5.97s.59,4.56,1.76,5.95c1.17,1.39,2.73,2.08,4.68,2.08Z"/>
    <path d="M320.09,454.85c-1.69,0-3.09-.31-4.19-.92-1.1-.62-1.93-1.54-2.49-2.77s-.84-2.76-.84-4.6v-12.97h3.48v12.93c0,1.23.16,2.25.49,3.07.33.82.85,1.42,1.57,1.8.71.39,1.6.58,2.66.58,1.2,0,2.25-.27,3.13-.82s1.59-1.3,2.1-2.28.77-2.12.77-3.44v-11.85h3.48v20.87h-3.39v-4.81h.56c-.57,1.69-1.51,2.98-2.81,3.87-1.3.89-2.81,1.33-4.53,1.33Z"/>
    <path d="M335.8,462.2v-28.6h3.39v4.94h-.43c.46-1.63,1.37-2.93,2.73-3.89,1.36-.96,2.98-1.44,4.87-1.44s3.49.44,4.88,1.31,2.46,2.12,3.22,3.74c.76,1.62,1.14,3.54,1.14,5.78s-.38,4.12-1.14,5.73c-.76,1.62-1.83,2.87-3.2,3.76-1.37.89-3.01,1.33-4.9,1.33s-3.51-.48-4.85-1.44c-1.35-.96-2.26-2.24-2.75-3.84h.52v12.63h-3.48ZM345.64,452.06c1.98,0,3.54-.69,4.7-2.08,1.16-1.39,1.74-3.37,1.74-5.95s-.58-4.6-1.74-5.97c-1.16-1.38-2.73-2.06-4.7-2.06s-3.51.69-4.68,2.06c-1.17,1.37-1.76,3.36-1.76,5.97s.59,4.56,1.76,5.95c1.17,1.39,2.73,2.08,4.68,2.08Z"/>
  </g>
</svg>