<?xml version="1.0" encoding="UTF-8"?>
<svg id="Scouts_AUS_Master_Vert_1Col_CMYK" xmlns="http://www.w3.org/2000/svg" viewBox="0 0 485.13 502.89">
  <defs>
    <style>
      .cls-1 {
        fill: #262661;
      }

      .cls-2 {
        fill: #fff;
      }
    </style>
  </defs>
  <rect class="cls-1" width="485.13" height="502.89"/>
  <g id="Logotype">
    <path id="Logo" class="cls-2" d="M184.93,128.89c-.39-5.4.44-10.05,2.94-13.11,2.77-3.39,7.56-4.02,12.88-4.02,3.1,0,6.38.21,9.54.21,4.1,0,8-.36,11.08-1.98,6.89-3.65,11.37-11.76,19.08-30.58,7.56-18.45,13.81-33.41,26.4-33.52.03,0,.07,0,.1,0,11.51,0,17.67,16.59,22.25,33.57,1.51,5.62,3.95,15.13,5.45,25.98-1.76.49-3.57,1.36-5.36,2.58-2.77,1.89-12.63,9.03-23.09,21.41-1.62,1.92-3.28,4.03-4.93,6.26,0,0,0,0,0,0-1.98-2.51-4.39-4.89-7.24-7.03-1.29-.97-7.67-5.74-11.45-9.82-3.78,4.08-10.15,8.85-11.45,9.82-5.09,3.81-8.76,8.38-11.11,13.12,0,0,0,0,0,0-9.21-5.94-20.95-10.25-35.09-12.89ZM330.76,243.74c0,1.46-2.09,2.55-3.85,3.31-5.07,2.17-20.6,8.24-40.03,8.24-4.26,0-8.7-.29-13.27-.98-6.86-1.03-12.68-3.68-17.46-7.31,0,0,0,0,0,0,2.03-2.46,3.72-5.04,4.91-7.61-4.8-6.64-7.21-14.87-7.9-21.6h-21.15c-.69,6.73-3.1,14.96-7.9,21.6,3.31,7.23,10.59,14.49,18.48,19.04,4.28-2.47,8.37-5.74,11.76-9.37,0,0,0,0,0,0,5.46,4.19,11.86,6.91,18.87,7.96,3.13.47,6.35.77,9.59.91.02.41.04.81.06,1.19.55,16.13-3.03,31.7-9.51,44.94-4.19,8.56-10.7,13.83-18.37,13.83-3.32,0-6.86-.99-10.53-3.13-12.27-7.16-18.85-21.32-39.88-31.7-12.68-6.26-23.95-6.51-31.28-6.51-.65,0-1.28,0-1.86,0-4.26,0-6.79-.11-6.92-1.85-.18-2.48,4.41-4.42,9.37-7.9,6.9-4.84,17.49-15.03,25.34-24.64,2.9-1.23,6.24-2.78,9.76-4.69,0,0,0,0,0,0,1.67.99,3.59,1.58,5.66,1.58,8.83,0,14.26-14.16,14.58-21.26h-9.71c0,.09-.01.17-.02.22-1.07,9.11-8.98,10.95-16.87,9.17.26,3.19,1.73,6.23,3.97,8.44,0,0,0,0,0,0-8.07,4.26-15,6.56-17.37,7.38-7.93,2.75-14.16,4.08-18.99,4.08-4.21,0-7.34-1.01-9.59-2.97-4.69-4.09-2.54-10.62-.98-18.76,1.53-7.98,1.17-15.06-1.96-21.63-8.09-16.95-32.16-21-49.35-33.63-8.37-6.16-12.77-12.94-11.6-20.67.86-5.73,5.56-12.04,15.34-15.61,9.42-3.44,21.73-5.28,36.82-5.28,5.72,0,11.83.26,18.34.81,22.44,1.87,39.54,7.06,51.65,14.99-1.36,3.46-2.03,6.95-2.03,10.26,0,18.04,15.17,27.41,15.17,54.33h-2.79c0-19.66-12.08-46.83-33.07-46.86-14.94-.02-25.25,14.24-22.17,28.39,2.07,9.47,10.7,17.78,20.96,16.36-1.74-6.57,1.28-13.95,8.48-14.99,8.32-1.2,13.38,7.32,14.93,17.1h-.14c-1.69,0-3.06,1.37-3.06,3.06s1.37,3.06,3.06,3.06h48.71c1.69,0,3.06-1.37,3.06-3.06s-1.37-3.06-3.06-3.06h-.14c1.56-9.77,6.61-18.3,14.93-17.1,7.2,1.04,10.22,8.43,8.48,14.99,2.45.34,4.8.12,7-.53,0,0,0,0,0,0,.71,1.56,1.41,3.11,2.11,4.62,7.91,16.93,16.27,22.49,27.27,29.04,2.71,1.61,4.17,2.67,4.17,3.81ZM282.55,227.18c-7.89,1.78-15.8-.06-16.87-9.17,0-.05-.01-.13-.02-.22h-9.71c.32,7.1,5.76,21.26,14.58,21.26,6.47,0,11.5-5.67,12.02-11.86ZM369.73,157.81c-24.77-13.05-65.6-13.17-65.21-40.93.08-6.07-2.69-9.17-6.66-9.17-2.09,0-4.5.85-7.01,2.57-5.76,3.94-14.43,11.32-22.54,20.92-1.73,2.04-3.53,4.33-5.33,6.81,3.59,5.38,5.34,11.21,5.34,16.55,0,18.04-15.17,27.41-15.17,54.33h2.79c0-19.66,12.08-46.83,33.07-46.86,14.94-.02,25.25,14.24,22.17,28.39-1.38,6.3-5.66,12.09-11.4,14.84h0c.19.42.39.85.58,1.27.49,1.07.97,2.14,1.46,3.18,3.6,7.71,7.22,12.91,11.28,17,16.41-10.92,13.26-30.45,33.8-44.73,9.65-6.71,17.35-9.81,23.8-11.85,7.12-2.25,7.09-8.07-.96-12.31Z"/>
  </g>
  <g>
    <path class="cls-2" d="M73.57,403.56v-8.06h10.02v-28.42h4.63l-12.31,7.23-3.68-7.17,14.21-8.31h6.98v36.67h9.39v8.06h-29.24Z"/>
    <path class="cls-2" d="M120.01,404.2c-1.82,0-3.57-.14-5.26-.41-1.69-.27-3.24-.67-4.63-1.17-1.4-.51-2.62-1.16-3.68-1.97l2.28-6.15c1.06.59,2.21,1.14,3.46,1.65,1.25.51,2.55.89,3.9,1.14,1.35.25,2.68.38,4,.38,1.78,0,3.09-.29,3.93-.89.85-.59,1.27-1.35,1.27-2.28,0-.8-.28-1.41-.83-1.81-.55-.4-1.35-.71-2.41-.92l-6.72-1.21c-2.58-.51-4.58-1.48-5.99-2.92-1.42-1.44-2.12-3.3-2.12-5.58,0-2.16.59-4,1.78-5.52,1.18-1.52,2.82-2.7,4.92-3.52,2.09-.82,4.47-1.24,7.14-1.24,1.52,0,3,.13,4.44.38s2.8.63,4.09,1.14c1.29.51,2.46,1.16,3.52,1.97l-2.47,6.15c-.8-.59-1.76-1.12-2.85-1.59-1.1-.46-2.22-.82-3.36-1.08s-2.2-.38-3.17-.38c-1.95,0-3.35.3-4.22.89-.87.59-1.3,1.35-1.3,2.28,0,.72.25,1.32.76,1.81.51.49,1.27.82,2.28.98l6.72,1.14c2.71.51,4.78,1.45,6.22,2.82,1.44,1.38,2.16,3.23,2.16,5.55,0,2.2-.57,4.07-1.71,5.61-1.14,1.54-2.75,2.72-4.82,3.52-2.07.8-4.5,1.21-7.29,1.21Z"/>
    <path class="cls-2" d="M153.69,404.2c-4.44,0-7.73-1.07-9.86-3.2-2.14-2.13-3.2-5.3-3.2-9.48v-11.99h-5.9v-7.04h5.9v-9.2h9.58v9.2h9.13v7.04h-9.13v11.61c0,1.78.4,3.1,1.21,3.96.8.87,2.11,1.3,3.93,1.3.51,0,1.08-.05,1.71-.16.63-.1,1.33-.26,2.09-.48l1.33,6.98c-.85.47-1.89.82-3.14,1.08-1.25.25-2.46.38-3.65.38Z"/>
    <path class="cls-2" d="M180.71,403.56v-44.72h20.49c4.78,0,8.47,1.04,11.07,3.11,2.6,2.07,3.9,4.91,3.9,8.5,0,2.67-.76,4.93-2.28,6.79-1.52,1.86-3.59,3.11-6.22,3.74v-.95c2.03.3,3.76.93,5.2,1.9,1.44.97,2.54,2.22,3.3,3.74.76,1.52,1.14,3.3,1.14,5.33,0,2.58-.61,4.82-1.84,6.72s-3,3.35-5.33,4.35c-2.33.99-5.08,1.49-8.25,1.49h-21.19ZM190.16,377.18h9.33c2.45,0,4.27-.45,5.46-1.36,1.18-.91,1.78-2.27,1.78-4.09s-.59-3.25-1.78-4.16c-1.18-.91-3-1.36-5.46-1.36h-9.33v10.97ZM190.16,396.21h10.47c1.01,0,1.91-.07,2.7-.22.78-.15,1.46-.37,2.03-.67.57-.3,1.05-.69,1.43-1.17.38-.49.67-1.04.86-1.65.19-.61.29-1.3.29-2.06,0-.8-.09-1.53-.29-2.19-.19-.66-.48-1.21-.86-1.65s-.86-.82-1.43-1.14c-.57-.32-1.25-.55-2.03-.7-.78-.15-1.68-.22-2.7-.22h-10.47v11.67Z"/>
    <path class="cls-2" d="M233.68,404.2c-2.37,0-4.44-.43-6.22-1.3s-3.17-2.05-4.19-3.55c-1.02-1.5-1.52-3.22-1.52-5.17,0-2.28.59-4.08,1.78-5.39,1.18-1.31,3.1-2.26,5.74-2.85,2.64-.59,6.16-.89,10.56-.89h3.36v4.95h-3.3c-1.61,0-2.98.06-4.12.19s-2.07.35-2.79.67c-.72.32-1.24.72-1.55,1.21-.32.49-.48,1.07-.48,1.75,0,1.14.41,2.09,1.24,2.85.83.76,2,1.14,3.52,1.14,1.23,0,2.33-.27,3.3-.83.97-.55,1.73-1.31,2.28-2.28.55-.97.83-2.13.83-3.49v-7.23c0-1.86-.42-3.18-1.27-3.96-.85-.78-2.31-1.17-4.38-1.17-1.65,0-3.42.25-5.3.76-1.88.51-3.73,1.31-5.55,2.41l-2.6-6.34c1.1-.76,2.42-1.44,3.96-2.03,1.54-.59,3.19-1.05,4.95-1.36s3.39-.48,4.92-.48c3.26,0,5.95.48,8.09,1.43s3.72,2.42,4.76,4.41c1.04,1.99,1.55,4.5,1.55,7.55v18.4h-8.94v-6.22h.44c-.25,1.4-.79,2.6-1.62,3.62-.82,1.01-1.86,1.81-3.11,2.38-1.25.57-2.7.86-4.34.86Z"/>
    <path class="cls-2" d="M269.08,404.2c-3.97,0-6.89-1.04-8.75-3.11s-2.79-5.18-2.79-9.33v-32.92h9.58v32.54c0,1.1.17,2.03.51,2.79.34.76.83,1.32,1.49,1.68s1.49.54,2.51.54c.46,0,.92,0,1.37-.03.44-.02.86-.09,1.24-.22l-.06,7.42c-.85.21-1.67.37-2.47.48-.8.11-1.67.16-2.6.16Z"/>
    <path class="cls-2" d="M277.89,403.56v-31.08h9.39v5.84h-.7c.59-1.35,1.36-2.52,2.31-3.49.95-.97,2.1-1.72,3.46-2.25,1.35-.53,2.83-.79,4.44-.79,2.41,0,4.42.57,6.03,1.71,1.61,1.14,2.75,2.88,3.43,5.2h-.89c.93-2.11,2.37-3.79,4.31-5.04,1.94-1.25,4.14-1.87,6.6-1.87s4.33.47,5.9,1.4c1.56.93,2.73,2.38,3.49,4.34.76,1.97,1.14,4.43,1.14,7.39v18.65h-9.58v-18.33c0-2.11-.32-3.65-.95-4.6-.63-.95-1.78-1.43-3.42-1.43-1.14,0-2.15.28-3.01.82-.87.55-1.53,1.38-2,2.47-.47,1.1-.7,2.43-.7,4v17.06h-9.58v-18.33c0-2.11-.34-3.65-1.01-4.6-.68-.95-1.78-1.43-3.3-1.43-1.18,0-2.21.28-3.08.82-.87.55-1.53,1.38-2,2.47-.47,1.1-.7,2.43-.7,4v17.06h-9.58Z"/>
    <path class="cls-2" d="M343.86,404.2c-2.37,0-4.44-.43-6.22-1.3-1.78-.87-3.17-2.05-4.19-3.55-1.01-1.5-1.52-3.22-1.52-5.17,0-2.28.59-4.08,1.78-5.39,1.18-1.31,3.1-2.26,5.74-2.85,2.64-.59,6.16-.89,10.56-.89h3.36v4.95h-3.3c-1.61,0-2.98.06-4.12.19s-2.07.35-2.79.67c-.72.32-1.24.72-1.55,1.21-.32.49-.48,1.07-.48,1.75,0,1.14.41,2.09,1.24,2.85.82.76,2,1.14,3.52,1.14,1.23,0,2.33-.27,3.3-.83.97-.55,1.73-1.31,2.28-2.28.55-.97.83-2.13.83-3.49v-7.23c0-1.86-.42-3.18-1.27-3.96-.85-.78-2.3-1.17-4.38-1.17-1.65,0-3.42.25-5.3.76-1.88.51-3.73,1.31-5.55,2.41l-2.6-6.34c1.1-.76,2.42-1.44,3.96-2.03,1.54-.59,3.19-1.05,4.95-1.36,1.75-.32,3.39-.48,4.92-.48,3.26,0,5.95.48,8.09,1.43,2.13.95,3.72,2.42,4.76,4.41,1.04,1.99,1.55,4.5,1.55,7.55v18.4h-8.94v-6.22h.44c-.25,1.4-.79,2.6-1.62,3.62-.83,1.01-1.86,1.81-3.11,2.38-1.25.57-2.7.86-4.35.86Z"/>
    <path class="cls-2" d="M367.34,366.39v-8.88h10.4v8.88h-10.4ZM367.72,403.56v-31.08h9.58v31.08h-9.58Z"/>
    <path class="cls-2" d="M383.83,403.56v-31.08h9.39v5.84h-.7c.93-2.11,2.37-3.73,4.31-4.85,1.94-1.12,4.12-1.68,6.53-1.68,2.54,0,4.6.48,6.19,1.43,1.58.95,2.78,2.4,3.58,4.35.8,1.95,1.21,4.4,1.21,7.36v18.65h-9.58v-18.27c0-1.44-.17-2.6-.51-3.49-.34-.89-.86-1.54-1.55-1.97-.7-.42-1.58-.63-2.63-.63-1.35,0-2.53.29-3.52.86-.99.57-1.77,1.38-2.32,2.41s-.82,2.27-.82,3.71v17.38h-9.58Z"/>
  </g>
  <g>
    <path class="cls-2" d="M141.08,454.86c-1.58,0-3.06-.14-4.45-.43s-2.66-.69-3.82-1.22c-1.16-.53-2.21-1.18-3.16-1.95l1.25-2.83c.97.72,1.97,1.32,2.99,1.83,1.02.5,2.12.87,3.31,1.12,1.19.24,2.48.37,3.89.37,2.58,0,4.49-.48,5.73-1.44,1.25-.96,1.87-2.23,1.87-3.8,0-.83-.19-1.55-.58-2.15s-1.02-1.12-1.89-1.55c-.87-.43-2.01-.79-3.42-1.07l-4.47-.9c-2.69-.57-4.7-1.51-6.04-2.81-1.33-1.3-2-3.04-2-5.22,0-1.8.47-3.38,1.4-4.72.93-1.35,2.23-2.39,3.91-3.14,1.67-.74,3.59-1.12,5.73-1.12,1.38,0,2.68.14,3.91.43,1.23.29,2.37.71,3.42,1.27,1.04.56,1.97,1.24,2.77,2.04l-1.25,2.75c-1.29-1.17-2.65-2.03-4.08-2.56-1.43-.53-3.04-.79-4.81-.79-1.52,0-2.83.23-3.93.69-1.1.46-1.96,1.12-2.58,2-.62.87-.92,1.88-.92,3.03,0,1.38.42,2.46,1.27,3.26s2.23,1.39,4.14,1.76l4.47.95c2.89.6,5.03,1.51,6.42,2.73,1.39,1.22,2.08,2.87,2.08,4.96,0,1.66-.45,3.14-1.35,4.45-.9,1.3-2.19,2.31-3.87,3.03-1.67.72-3.66,1.07-5.95,1.07Z"/>
    <path class="cls-2" d="M165.08,454.86c-2.09,0-3.89-.46-5.41-1.38-1.52-.92-2.68-2.2-3.5-3.84-.82-1.65-1.22-3.56-1.22-5.73s.41-4.11,1.22-5.71c.82-1.6,1.98-2.83,3.5-3.69,1.52-.86,3.32-1.29,5.41-1.29,1.29,0,2.56.23,3.82.69,1.26.46,2.3,1.1,3.13,1.93l-1.2,2.53c-.83-.8-1.74-1.39-2.73-1.76s-1.93-.56-2.81-.56c-2.18,0-3.85.68-5.02,2.04-1.17,1.36-1.76,3.31-1.76,5.86s.59,4.46,1.76,5.91c1.17,1.45,2.85,2.17,5.02,2.17.89,0,1.83-.19,2.81-.56.99-.37,1.9-.97,2.73-1.8l1.2,2.53c-.83.83-1.88,1.48-3.16,1.95-1.27.47-2.54.71-3.8.71Z"/>
    <path class="cls-2" d="M183.81,454.86c-2.03,0-3.79-.44-5.28-1.33-1.49-.89-2.64-2.14-3.46-3.76-.82-1.62-1.22-3.53-1.22-5.73s.41-4.12,1.22-5.73c.82-1.62,1.97-2.87,3.46-3.76,1.49-.89,3.25-1.33,5.28-1.33s3.79.44,5.28,1.33c1.49.89,2.64,2.14,3.46,3.76.82,1.62,1.22,3.53,1.22,5.73s-.41,4.12-1.22,5.73c-.82,1.62-1.97,2.87-3.46,3.76-1.49.89-3.25,1.33-5.28,1.33ZM183.81,452.06c1.98,0,3.54-.69,4.7-2.08,1.16-1.39,1.74-3.37,1.74-5.95s-.58-4.6-1.74-5.97c-1.16-1.38-2.73-2.06-4.7-2.06s-3.51.69-4.68,2.06c-1.17,1.37-1.76,3.36-1.76,5.97s.59,4.56,1.76,5.95c1.17,1.39,2.73,2.08,4.68,2.08Z"/>
    <path class="cls-2" d="M205.41,454.86c-1.69,0-3.08-.31-4.19-.92s-1.93-1.54-2.49-2.77c-.56-1.23-.84-2.76-.84-4.6v-12.97h3.48v12.93c0,1.23.16,2.25.49,3.07.33.82.85,1.42,1.57,1.8.72.39,1.6.58,2.66.58,1.2,0,2.25-.27,3.13-.82s1.59-1.3,2.1-2.28c.52-.97.77-2.12.77-3.44v-11.85h3.48v20.87h-3.39v-4.81h.56c-.57,1.69-1.51,2.98-2.81,3.87-1.3.89-2.81,1.33-4.53,1.33Z"/>
    <path class="cls-2" d="M229.51,454.86c-2.46,0-4.31-.66-5.54-1.98-1.23-1.32-1.85-3.19-1.85-5.63v-10.95h-4.08v-2.71h4.08v-6.4h3.48v6.4h6.61v2.71h-6.61v10.61c0,1.63.34,2.87,1.03,3.71.69.84,1.8,1.27,3.35,1.27.46,0,.92-.06,1.37-.17.46-.11.87-.23,1.25-.34l.6,2.66c-.37.2-.92.39-1.63.56s-1.4.26-2.06.26Z"/>
    <path class="cls-2" d="M259.53,454.86c-3.24,0-5.96-.62-8.18-1.85-2.22-1.23-3.9-3.01-5.05-5.33s-1.72-5.1-1.72-8.33.57-5.97,1.72-8.29,2.79-4.11,4.94-5.37,4.74-1.89,7.77-1.89c1.43,0,2.78.14,4.06.43,1.27.29,2.46.71,3.56,1.27s2.07,1.25,2.9,2.08l-1.38,2.83c-1.37-1.2-2.79-2.08-4.25-2.62-1.46-.54-3.11-.82-4.94-.82-3.46,0-6.11,1.07-7.92,3.22-1.82,2.15-2.73,5.2-2.73,9.15s.94,7.07,2.81,9.19c1.88,2.12,4.7,3.18,8.48,3.18,1.37,0,2.72-.13,4.04-.41,1.32-.27,2.56-.65,3.74-1.14l-.77,2.02v-10.69h-7.69v-2.79h10.74v14c-.77.4-1.73.77-2.88,1.09-1.15.33-2.35.59-3.61.77-1.26.19-2.48.28-3.65.28Z"/>
    <path class="cls-2" d="M275.42,454.47v-20.87h3.39v4.94h-.43c.49-1.69,1.33-2.97,2.53-3.84,1.2-.87,2.79-1.38,4.77-1.52l1.25-.13.26,3.01-2.19.26c-1.95.17-3.44.79-4.49,1.87-1.05,1.07-1.57,2.54-1.57,4.4v11.9h-3.52Z"/>
    <path class="cls-2" d="M298.48,454.86c-2.03,0-3.79-.44-5.28-1.33-1.49-.89-2.64-2.14-3.46-3.76-.82-1.62-1.22-3.53-1.22-5.73s.41-4.12,1.22-5.73c.82-1.62,1.97-2.87,3.46-3.76,1.49-.89,3.25-1.33,5.28-1.33s3.79.44,5.28,1.33c1.49.89,2.64,2.14,3.46,3.76.82,1.62,1.22,3.53,1.22,5.73s-.41,4.12-1.22,5.73c-.82,1.62-1.97,2.87-3.46,3.76-1.49.89-3.25,1.33-5.28,1.33ZM298.48,452.06c1.98,0,3.54-.69,4.7-2.08,1.16-1.39,1.74-3.37,1.74-5.95s-.58-4.6-1.74-5.97c-1.16-1.38-2.73-2.06-4.7-2.06s-3.51.69-4.68,2.06c-1.17,1.37-1.76,3.36-1.76,5.97s.59,4.56,1.76,5.95c1.17,1.39,2.73,2.08,4.68,2.08Z"/>
    <path class="cls-2" d="M320.08,454.86c-1.69,0-3.09-.31-4.19-.92-1.1-.62-1.93-1.54-2.49-2.77s-.84-2.76-.84-4.6v-12.97h3.48v12.93c0,1.23.16,2.25.49,3.07.33.82.85,1.42,1.57,1.8.71.39,1.6.58,2.66.58,1.2,0,2.25-.27,3.13-.82s1.59-1.3,2.1-2.28.77-2.12.77-3.44v-11.85h3.48v20.87h-3.39v-4.81h.56c-.57,1.69-1.51,2.98-2.81,3.87-1.3.89-2.81,1.33-4.53,1.33Z"/>
    <path class="cls-2" d="M335.8,462.2v-28.6h3.39v4.94h-.43c.46-1.63,1.37-2.93,2.73-3.89,1.36-.96,2.98-1.44,4.87-1.44s3.49.44,4.88,1.31,2.46,2.12,3.22,3.74c.76,1.62,1.14,3.54,1.14,5.78s-.38,4.12-1.14,5.73c-.76,1.62-1.83,2.87-3.2,3.76-1.37.89-3.01,1.33-4.9,1.33s-3.51-.48-4.85-1.44c-1.35-.96-2.26-2.24-2.75-3.84h.52v12.63h-3.48ZM345.64,452.06c1.98,0,3.54-.69,4.7-2.08,1.16-1.39,1.74-3.37,1.74-5.95s-.58-4.6-1.74-5.97c-1.16-1.38-2.73-2.06-4.7-2.06s-3.51.69-4.68,2.06c-1.17,1.37-1.76,3.36-1.76,5.97s.59,4.56,1.76,5.95c1.17,1.39,2.73,2.08,4.68,2.08Z"/>
  </g>
</svg>